<svg width="25" height="24" viewBox="0 0 25 24" fill="none" xmlns="http://www.w3.org/2000/svg">
<g clip-path="url(#clip0_58_75)">
<path d="M24.2293 14.9029C22.6266 21.3315 16.1151 25.2435 9.68572 23.6407C3.25935 22.038 -0.653027 15.5265 0.950098 9.09823C2.5521 2.66885 9.06322 -1.2439 15.4907 0.358854C21.9197 1.9616 25.8317 8.47385 24.229 14.9029H24.2293Z" fill="#F7931A"/>
<path d="M17.8803 10.2904C18.1188 8.69365 16.9031 7.83527 15.2407 7.26265L15.7799 5.09965L14.4629 4.77152L13.9379 6.87752C13.5922 6.79127 13.2367 6.7099 12.8834 6.62927L13.4122 4.5094L12.0963 4.18127L11.5567 6.34352C11.2702 6.27827 10.9889 6.21377 10.7159 6.1459L10.7174 6.13915L8.90169 5.68577L8.55144 7.09202C8.55144 7.09202 9.52831 7.3159 9.50769 7.32977C10.0409 7.4629 10.1377 7.81577 10.1212 8.09552L9.50694 10.5596C9.54369 10.569 9.59131 10.5825 9.64381 10.6035L9.50506 10.569L8.64369 14.0209C8.57844 14.1829 8.41306 14.4259 8.04031 14.3336C8.05344 14.3528 7.08331 14.0948 7.08331 14.0948L6.42969 15.6023L8.14344 16.0294C8.46219 16.1093 8.77456 16.1929 9.08169 16.2716L8.53681 18.4598L9.85194 18.7879L10.3919 16.6234C10.7508 16.7209 11.0996 16.8109 11.4408 16.8956L10.9031 19.05L12.2197 19.3781L12.7646 17.1945C15.0097 17.6194 16.6983 17.448 17.4082 15.4178C17.9808 13.7828 17.3801 12.8396 16.1988 12.2243C17.0591 12.0251 17.7071 11.4593 17.8799 10.2904H17.8803ZM14.8717 14.5088C14.4644 16.1438 11.7119 15.2603 10.8191 15.0383L11.5421 12.1399C12.4346 12.3626 15.2962 12.8036 14.8721 14.5088H14.8717ZM15.2786 10.2668C14.9073 11.754 12.6161 10.9984 11.8724 10.8131L12.5279 8.1844C13.2716 8.36965 15.6656 8.7154 15.2786 10.2668V10.2668Z" fill="white"/>
</g>
<defs>
<clipPath id="clip0_58_75">
<rect width="24" height="24" fill="white" transform="translate(0.589355)"/>
</clipPath>
</defs>
</svg>
