<svg width="27" height="24" viewBox="0 0 27 24" fill="none" xmlns="http://www.w3.org/2000/svg">
<g clip-path="url(#clip0_58_227)">
<path d="M7.70995 11.9135C7.65454 12.8763 8.39566 13.7005 9.35843 13.7559C9.39306 13.7559 9.4277 13.7559 9.46233 13.7559C10.432 13.7559 11.2147 12.9733 11.2078 12.0036C11.2078 11.0339 10.4251 10.2512 9.4554 10.2581C8.52726 10.2581 7.75843 10.9854 7.70995 11.9135Z" fill="#0033AD"/>
<path d="M1.18512 11.4633C0.873431 11.4425 0.603301 11.6849 0.589448 11.9966C0.575595 12.3083 0.811093 12.5784 1.12278 12.5923C1.43447 12.6131 1.69767 12.3706 1.71845 12.059C1.73923 11.7473 1.49681 11.4841 1.18512 11.4633Z" fill="#0033AD"/>
<path d="M7.59889 1.75937C7.87594 1.62084 7.98677 1.27452 7.84824 0.997465C7.70971 0.720409 7.36339 0.609587 7.08633 0.748115C6.80928 0.886643 6.69845 1.22604 6.83698 1.50309C6.97551 1.78708 7.3149 1.90482 7.59889 1.75937C7.59889 1.75937 7.59196 1.75937 7.59889 1.75937Z" fill="#0033AD"/>
<path d="M9.37209 4.85543C9.80153 4.64071 9.97469 4.1143 9.75997 3.68487C9.54525 3.25543 9.01885 3.08227 8.58941 3.29699C8.15997 3.51171 7.98681 4.03811 8.20153 4.46755C8.41625 4.89699 8.94266 5.07015 9.37209 4.85543Z" fill="#0033AD"/>
<path d="M3.40141 6.98182C3.73388 7.19654 4.17717 7.10649 4.39881 6.77402C4.61353 6.44156 4.52349 5.99827 4.19102 5.77662C3.85855 5.5619 3.41526 5.65195 3.19362 5.98441C2.97197 6.31688 3.06894 6.7671 3.40141 6.98182Z" fill="#0033AD"/>
<path d="M4.46126 11.1516C3.97641 11.1239 3.56775 11.491 3.54004 11.9759C3.51234 12.4607 3.87944 12.8694 4.36429 12.8971C4.84914 12.9248 5.25779 12.5577 5.2855 12.0728C5.31321 11.5949 4.94611 11.1793 4.46126 11.1516Z" fill="#0033AD"/>
<path d="M3.49857 17.0182C3.14532 17.1983 2.99987 17.6277 3.17996 17.9879C3.36004 18.3412 3.78948 18.4866 4.14965 18.3065C4.5029 18.1264 4.64835 17.697 4.46827 17.3368C4.28818 16.9836 3.85182 16.8381 3.49857 17.0182Z" fill="#0033AD"/>
<path d="M6.89246 9.34375C7.37038 9.65543 8.00761 9.52383 8.31237 9.04591C8.62406 8.56799 8.49246 7.93076 8.01454 7.626C7.53662 7.31431 6.89939 7.44591 6.59463 7.92383C6.28294 8.39483 6.41454 9.03206 6.89246 9.34375Z" fill="#0033AD"/>
<path d="M17.6631 4.78624C18.0648 5.04945 18.612 4.93862 18.8752 4.53689C19.1384 4.13516 19.0276 3.58797 18.6258 3.32477C18.2241 3.06157 17.6769 3.17239 17.4137 3.57412C17.1436 3.98278 17.2544 4.52304 17.6631 4.78624Z" fill="#0033AD"/>
<path d="M19.4502 1.70398C19.7134 1.87714 20.0597 1.80095 20.2329 1.53775C20.4061 1.27454 20.3299 0.928223 20.0667 0.755063C19.8035 0.581903 19.4571 0.658093 19.284 0.91437C19.1178 1.17757 19.1939 1.53082 19.4502 1.70398Z" fill="#0033AD"/>
<path d="M17.7946 10.2442C16.8318 10.1888 16.0006 10.93 15.9521 11.8927C15.8967 12.8555 16.6378 13.6867 17.6006 13.7352C17.6353 13.7352 17.6699 13.7352 17.6976 13.7352C18.6604 13.7352 19.443 12.9525 19.443 11.9828C19.45 11.0616 18.7227 10.2927 17.7946 10.2442Z" fill="#0033AD"/>
<path d="M9.94691 9.21912C10.2447 9.80787 10.8473 10.1819 11.5123 10.1819C12.475 10.1819 13.2577 9.39921 13.2577 8.42951C13.2577 8.15938 13.1954 7.88925 13.0707 7.6399C12.6344 6.7741 11.5815 6.42778 10.7227 6.86414C9.85686 7.30743 9.51054 8.36025 9.94691 9.21912Z" fill="#0033AD"/>
<path d="M23.6545 6.98183C24.0078 6.80175 24.1463 6.36538 23.9662 6.01214C23.7861 5.65889 23.3498 5.52036 22.9965 5.70045C22.6433 5.88053 22.5047 6.30997 22.6779 6.66322C22.8649 7.01646 23.2943 7.16192 23.6545 6.98183Z" fill="#0033AD"/>
<path d="M19.2214 7.53597C18.7157 7.79225 18.508 8.4087 18.7642 8.91433C19.0205 9.41995 19.637 9.62775 20.1426 9.37147C20.6482 9.11519 20.856 8.49874 20.5997 7.99311C20.3435 7.48749 19.727 7.28662 19.2214 7.53597Z" fill="#0033AD"/>
<path d="M13.5074 1.44074C13.9022 1.46152 14.2416 1.15676 14.2693 0.761952C14.297 0.367147 13.9853 0.0277533 13.5905 4.76315e-05C13.1957 -0.0207316 12.8563 0.277104 12.8286 0.671909C12.8079 1.07364 13.1126 1.41303 13.5074 1.44074Z" fill="#0033AD"/>
<path d="M13.5003 5.96364C14.0682 5.99827 14.5531 5.56191 14.5808 4.99395C14.6154 4.42598 14.1791 3.94113 13.6111 3.91343C13.0431 3.87879 12.5583 4.31516 12.5306 4.88312C12.5029 5.45109 12.9323 5.93594 13.5003 5.96364Z" fill="#0033AD"/>
<path d="M7.93165 16.4641C8.43727 16.2078 8.64507 15.5914 8.38879 15.0858C8.13251 14.5801 7.51606 14.3723 7.01043 14.6286C6.50481 14.8849 6.29702 15.5013 6.55329 16.007C6.80957 16.5126 7.42602 16.7204 7.93165 16.4641Z" fill="#0033AD"/>
<path d="M14.1651 7.46673C13.6387 8.27712 13.8603 9.35764 14.6707 9.88405C15.4811 10.4105 16.5616 10.1888 17.088 9.37842C17.6144 8.56803 17.3928 7.48751 16.5824 6.96111C16.2984 6.77409 15.9659 6.67712 15.6265 6.67712C15.0378 6.67712 14.4906 6.97496 14.1651 7.46673Z" fill="#0033AD"/>
<path d="M17.206 14.781C16.7696 13.9152 15.7168 13.5689 14.8579 14.0053C13.9921 14.4416 13.6458 15.4944 14.0822 16.3533C14.5185 17.2191 15.5713 17.5654 16.4302 17.1291C17.2891 16.6996 17.6423 15.6607 17.2129 14.7949C17.2129 14.7879 17.2129 14.7879 17.206 14.781Z" fill="#0033AD"/>
<path d="M20.2606 14.6563C19.7827 14.3446 19.1455 14.4762 18.8407 14.9541C18.529 15.432 18.6606 16.0693 19.1386 16.374C19.6165 16.6857 20.2537 16.5541 20.5585 16.0762C20.8702 15.6052 20.7386 14.968 20.2606 14.6563Z" fill="#0033AD"/>
<path d="M23.6126 12.0312C23.6404 11.5464 23.2733 11.1377 22.7884 11.11C22.3036 11.0823 21.8949 11.4494 21.8672 11.9342C21.8395 12.4191 22.2066 12.8277 22.6914 12.8554C23.1694 12.8832 23.5849 12.5091 23.6126 12.0312Z" fill="#0033AD"/>
<path d="M26.0303 11.4079C25.7186 11.3871 25.4485 11.6295 25.4347 11.9412C25.4208 12.2529 25.6563 12.523 25.968 12.5369C26.2797 12.5576 26.5429 12.3152 26.5637 12.0035C26.5775 11.6918 26.342 11.4286 26.0303 11.4079Z" fill="#0033AD"/>
<path d="M23.7514 17.0182C23.419 16.8035 22.9757 16.8935 22.754 17.226C22.5393 17.5585 22.6294 18.0017 22.9618 18.2234C23.2943 18.4381 23.7376 18.3481 23.9592 18.0156C24.1809 17.6831 24.0839 17.2329 23.7514 17.0182Z" fill="#0033AD"/>
<path d="M7.69583 22.2962C7.43262 22.123 7.0863 22.1992 6.91314 22.4555C6.73998 22.7187 6.81617 23.065 7.07245 23.2382C7.33565 23.4114 7.68198 23.3352 7.85514 23.0789C8.03522 22.8226 7.95903 22.4694 7.69583 22.2962Z" fill="#0033AD"/>
<path d="M19.5541 22.2407C19.277 22.3793 19.1662 22.7256 19.3048 23.0026C19.4433 23.2797 19.7896 23.3905 20.0667 23.252C20.3437 23.1135 20.4545 22.7741 20.316 22.497C20.1775 22.213 19.8381 22.0953 19.5541 22.2407C19.5541 22.2407 19.561 22.2407 19.5541 22.2407Z" fill="#0033AD"/>
<path d="M12.9876 16.5334C13.5141 15.723 13.2924 14.6425 12.482 14.1092C11.6716 13.5828 10.5911 13.8044 10.0578 14.6148C9.52444 15.4252 9.75301 16.5057 10.5634 17.039C10.8474 17.226 11.1799 17.323 11.5192 17.323C12.1149 17.3299 12.6621 17.0321 12.9876 16.5334Z" fill="#0033AD"/>
<path d="M9.48965 19.2139C9.08792 18.9507 8.54073 19.0616 8.27753 19.4633C8.01433 19.865 8.12515 20.4122 8.52688 20.6754C8.92861 20.9386 9.4758 20.8278 9.739 20.4261C10.0091 20.0243 9.89831 19.4771 9.48965 19.2139Z" fill="#0033AD"/>
<path d="M13.5698 22.5594C13.175 22.5386 12.8356 22.8433 12.8079 23.2381C12.7802 23.6329 13.0918 23.9723 13.4867 24C13.8815 24.0208 14.2209 23.723 14.2486 23.3282C14.2693 22.9264 13.9646 22.5871 13.5698 22.5594Z" fill="#0033AD"/>
<path d="M13.5766 18.0364C13.0086 18.0017 12.5238 18.4381 12.4961 19.006C12.4614 19.574 12.8978 20.0589 13.4658 20.0866C14.0337 20.1143 14.5186 19.6848 14.5463 19.1169C14.5809 18.5558 14.1446 18.0641 13.5766 18.0364Z" fill="#0033AD"/>
<path d="M17.7808 19.1446C17.3514 19.3663 17.1782 19.8927 17.3999 20.3221C17.6215 20.7516 18.1479 20.9247 18.5774 20.7031C19.0068 20.4884 19.1799 19.9619 18.9652 19.5325C18.7436 19.1031 18.2172 18.923 17.7808 19.1446Z" fill="#0033AD"/>
</g>
<defs>
<clipPath id="clip0_58_227">
<rect width="25.974" height="24" fill="white" transform="translate(0.589355)"/>
</clipPath>
</defs>
</svg>
