<svg width="25" height="24" viewBox="0 0 25 24" fill="none" xmlns="http://www.w3.org/2000/svg">
<g clip-path="url(#clip0_58_98)">
<path d="M12.5635 24C19.1909 24 24.5635 18.6274 24.5635 12C24.5635 5.37258 19.1909 0 12.5635 0C5.93606 0 0.563477 5.37258 0.563477 12C0.563477 18.6274 5.93606 24 12.5635 24Z" fill="#988430"/>
<path d="M12.5634 23.6156C18.9785 23.6156 24.179 18.4151 24.179 12C24.179 5.58489 18.9785 0.384399 12.5634 0.384399C6.14824 0.384399 0.947754 5.58489 0.947754 12C0.947754 18.4151 6.14824 23.6156 12.5634 23.6156Z" fill="#7A6A2A"/>
<path d="M12.5633 23.3709C18.8432 23.3709 23.9341 18.28 23.9341 12C23.9341 5.72007 18.8432 0.62915 12.5633 0.62915C6.2833 0.62915 1.19238 5.72007 1.19238 12C1.19238 18.28 6.2833 23.3709 12.5633 23.3709Z" fill="#BA9F33"/>
<path fill-rule="evenodd" clip-rule="evenodd" d="M5.81031 10.7185C5.74234 10.6564 5.67053 10.5942 5.60448 10.5321C5.53843 10.47 5.47059 10.4078 5.40263 10.3457L5.20064 10.1537C5.16762 10.1207 5.13267 10.0917 5.09965 10.0585C5.06663 10.0294 5.02784 9.99642 4.99482 9.96724C4.72679 9.7129 4.45722 9.45857 4.1929 9.2041C4.46669 9.4546 4.73472 9.7033 5.00851 9.95751L5.10362 10.0527C5.13664 10.0856 5.17159 10.1148 5.20461 10.1478L5.40647 10.3342C5.47443 10.3963 5.54048 10.4585 5.60845 10.5262C5.67642 10.5939 5.74247 10.6563 5.81043 10.7182L5.81031 10.7185ZM2.25306 10.6801C2.25306 10.6801 3.22778 10.7809 3.70355 10.8489C4.14426 10.9111 5.52295 11.1227 5.52295 11.1227L2.25306 10.6801ZM2.25306 10.6801C2.52685 10.7034 2.80064 10.7324 3.07443 10.7616C3.21421 10.7752 3.34823 10.7907 3.48224 10.8042L3.68794 10.8277C3.75591 10.8373 3.82195 10.847 3.88992 10.8567L4.70554 10.9868L5.11322 11.0547C5.24723 11.078 5.38125 11.1034 5.52103 11.1267C5.38701 11.1131 5.24723 11.0936 5.11322 11.0742L4.70554 11.0159L3.88992 10.8956C3.82195 10.8859 3.75591 10.8722 3.68794 10.8626L3.48211 10.8389C3.3481 10.8253 3.20832 10.8059 3.07431 10.7903C2.80051 10.7574 2.52672 10.7223 2.25293 10.6797L2.25306 10.6801ZM5.42592 11.3766C5.42592 11.3766 4.38515 11.6408 4.03367 11.7418C3.68807 11.8369 2.64141 12.1554 2.64141 12.1554L5.42579 11.3768L5.42592 11.3766Z" fill="#CFB66C"/>
<path fill-rule="evenodd" clip-rule="evenodd" d="M5.4255 11.3766C5.19446 11.4446 4.9647 11.5106 4.73033 11.5728L4.03517 11.7592C3.80413 11.8271 3.57437 11.8932 3.34397 11.9612L2.99837 12.0563C2.88381 12.0893 2.76733 12.1183 2.64893 12.1515C2.76336 12.1131 2.87997 12.0738 2.99453 12.0408L3.34013 11.9302C3.57117 11.8583 3.80093 11.7903 4.03133 11.7185C4.26621 11.6602 4.49737 11.598 4.73225 11.5417C4.95549 11.4854 5.19049 11.4292 5.4255 11.3767V11.3766ZM2.78678 12.7961C2.90121 12.7534 4.22166 12.1379 4.52848 11.9942C4.68208 11.9223 5.12854 11.7638 5.12854 11.7638L2.78678 12.7961Z" fill="#CFB66C"/>
<path fill-rule="evenodd" clip-rule="evenodd" d="M2.78675 12.7962C2.88761 12.7578 2.98285 12.7108 3.07987 12.6662L3.36723 12.5322L3.944 12.2545C4.136 12.1633 4.32262 12.0625 4.52064 11.9768C4.62163 11.9341 4.72262 11.8992 4.82349 11.8662L4.97709 11.8177C5.02944 11.8041 5.07808 11.7885 5.13069 11.7749C4.93869 11.8662 4.73657 11.9439 4.54432 12.0331C4.35232 12.1283 4.15597 12.206 3.95782 12.2914L3.37145 12.5496C3.17459 12.6293 2.98259 12.7147 2.78662 12.7962H2.78675ZM2.91475 13.3338C2.91475 13.3338 4.11078 12.6329 4.52243 12.4076C4.73798 12.2873 5.43507 11.9416 5.43507 11.9416L2.91475 13.3338Z" fill="#CFB66C"/>
<path fill-rule="evenodd" clip-rule="evenodd" d="M2.91504 13.334C3.1169 13.2097 3.32272 13.0835 3.52854 12.9553L3.83574 12.7688C3.94057 12.7068 4.04157 12.6485 4.14845 12.5864C4.25328 12.5242 4.35427 12.4622 4.46102 12.4039C4.51184 12.3725 4.56509 12.3453 4.62025 12.3224L4.78333 12.2408C4.99888 12.136 5.21443 12.0291 5.44163 11.9379C5.23581 12.068 5.0241 12.1788 4.81251 12.2932C4.70768 12.3514 4.6008 12.4039 4.49597 12.4622C4.39113 12.5204 4.29014 12.5826 4.18326 12.6389C4.07843 12.701 3.97744 12.7592 3.87069 12.8156L3.55414 12.9884L2.91529 13.334H2.91504ZM5.42563 12.095C5.42563 12.095 4.68195 12.6659 4.44118 12.8485C4.20041 13.031 3.49168 13.5436 3.49168 13.5436L5.42563 12.095V12.095Z" fill="#CFB66C"/>
<path fill-rule="evenodd" clip-rule="evenodd" d="M9.69353 16.699L9.31299 15.9786L9.5343 15.0776L11.1129 14.468L10.4411 13.0894L10.7731 11.6972L11.3964 10.4504L13.3227 10.1476L14.7381 8.7981L17.7945 9.02914L18.3945 12.2971L17.2391 16.4117L16.581 18.5418L13.9129 18.6428L12.6741 17.7846L11.2236 17.1786L9.69353 16.699Z" fill="#E2CC85"/>
<path fill-rule="evenodd" clip-rule="evenodd" d="M14.3735 16.6757C14.3735 16.6757 14.0045 16.8447 13.3751 16.8058C13.1929 16.5612 11.9173 16.4466 11.9173 16.4466C11.9173 16.4466 11.7581 16.3981 11.4765 16.5146C11.1931 16.6298 10.925 16.6156 10.6745 16.6777C10.424 16.7397 10.1753 16.4136 9.98333 16.3456C9.79133 16.2738 9.53674 16.101 9.53674 16.101L8.99914 16.0485L7.91959 15.5922L6.20452 13.8835L5.73847 14.6131L5.59473 15.5161L6.11325 16.586L7.50935 17.8578L10.2317 18.549L11.8452 18.0736L13.8666 17.2192L14.3735 16.6756V16.6757Z" fill="#F1D789"/>
<path fill-rule="evenodd" clip-rule="evenodd" d="M4.70115 10.6369L5.04675 9.59039L5.45853 8.91455L6.78461 8.80383L6.38653 9.96505L5.27792 11.9379L5.73808 13.6991L4.92259 14.1067L4.67197 13.7224L4.47011 12.8408L4.45654 11.8505L4.70115 10.6369Z" fill="#F4ECB4"/>
<path fill-rule="evenodd" clip-rule="evenodd" d="M6.1886 16.6039L5.93427 16.2485C5.93427 16.2485 5.8663 16.0796 5.90521 15.932C5.94361 15.7825 5.93811 15.7728 5.91878 15.7164C5.89945 15.6601 5.73625 15.4659 5.74598 15.2989C5.75558 15.1299 5.73241 15.0736 5.85657 14.9397C5.98662 14.8097 5.94784 14.5844 5.94784 14.5844L6.1168 14.6892L6.1552 14.631C6.1552 14.631 6.21728 14.6795 6.21728 14.7553C6.23084 14.6505 6.17452 14.165 6.30265 14.0544C6.43078 13.9438 6.65798 14.5728 6.65798 14.5728L6.5182 13.6601L6.15891 12.7243L5.52006 11.8699L5.48166 10.9281V10.8466C5.48166 10.8466 5.18841 11.2971 5.10688 11.653C5.04864 11.8976 5.18841 12.1947 5.15936 12.5461C5.13593 12.8957 5.10688 12.8684 5.19225 13.0069C5.27763 13.1454 5.4855 13.4302 5.40396 13.6361C5.33216 13.8128 5.08742 13.6885 5.08742 13.6885C5.08742 13.6885 5.03891 13.8322 4.97286 13.8846C4.94956 13.7993 4.92435 13.7449 4.87776 13.6926C4.87379 13.7257 4.86419 13.7703 4.86419 13.7703C4.86419 13.7703 4.82144 13.6363 4.77868 13.4674C4.72057 13.2422 4.65836 12.9451 4.60204 12.7859C4.57875 12.8771 4.52051 13.1548 4.52051 13.1548L4.55353 13.582L4.71276 14.1684L4.86636 14.5524L5.01587 15.0223L5.14579 15.3379L5.25062 15.5787L5.34188 16.1205L5.78259 16.5865L6.0176 16.6914L6.18835 16.604L6.1886 16.6039Z" fill="#F3E19D"/>
<path fill-rule="evenodd" clip-rule="evenodd" d="M4.93224 9.78253C4.93224 9.78253 4.6157 10.3201 4.52456 10.8621C4.43342 11.404 4.35176 11.9767 4.40936 12.7145C4.4676 13.4583 4.57832 13.9145 4.66766 14.2408C4.82126 14.7826 5.21909 15.536 5.21909 15.536L5.23266 15.5068C5.16579 15.3801 5.11242 15.2466 5.07342 15.1087C5.02094 14.9029 5.00149 14.6583 4.95298 14.5476C4.91022 14.437 4.83842 14.3418 4.80347 14.2058C4.77045 14.0758 4.76507 13.87 4.6637 13.7166C4.62094 13.6544 4.56846 13.4913 4.55298 13.3283C4.53352 13.0835 4.5627 12.8097 4.53941 12.5846C4.49666 12.2098 4.4676 11.9555 4.50638 11.7592C4.54517 11.563 4.74728 11.006 4.87157 10.5632C4.9531 10.2797 4.90446 10.0408 5.05397 9.79418C5.20347 9.54957 5.29486 9.33402 5.32776 9.18452C5.36616 9.04858 4.93173 9.78253 4.93173 9.78253H4.93224Z" fill="#F2E8B0"/>
<path fill-rule="evenodd" clip-rule="evenodd" d="M6.43344 9.56702C6.43344 9.56702 6.27037 9.61566 6.19267 9.70103C6.11498 9.78257 6.08195 9.85054 5.97712 9.98839C5.87229 10.1262 5.8664 10.2389 5.7809 10.4117C5.69552 10.5806 5.5071 10.835 5.48381 10.9262C5.46051 11.0175 5.42173 11.4446 5.37322 11.6466C5.33046 11.8486 5.42173 12.0972 5.42173 12.0972L5.53232 12.0738C5.53232 12.0738 5.53232 12.2175 5.64304 12.3147C5.75363 12.4098 5.77309 11.9922 5.77309 11.9922L6.18666 10.5961L6.80989 10.1728L6.87786 9.83108L6.43318 9.56702H6.43344Z" fill="#F5EEC0"/>
<path fill-rule="evenodd" clip-rule="evenodd" d="M6.73613 10.2C6.73613 10.2 6.44288 10.2193 6.29927 10.3243C6.24103 10.3669 6.21773 10.4019 6.15565 10.4543C6.04109 10.5495 5.92448 10.6369 5.86829 10.7615C5.80608 10.8857 5.73812 11.0741 5.69152 11.4295C5.67207 11.579 5.67207 11.7168 5.6585 11.8373C5.63904 12.0003 5.60999 12.1304 5.62548 12.2213C5.64493 12.4076 5.83719 12.5048 5.85588 12.7164L6.25395 12.5145L6.62874 11.0367L7.4249 10.5375L6.97434 10.0327L6.73562 10.1991L6.73613 10.2Z" fill="#E6DB9D"/>
<path fill-rule="evenodd" clip-rule="evenodd" d="M4.63636 20.1509C4.63802 20.1363 4.63969 20.1217 4.64135 20.1067C4.69946 19.6075 4.70932 19.2292 4.75194 18.9922C4.81402 18.6564 4.85677 18.5314 4.84705 18.4057C4.83348 18.2039 4.81799 18.0563 4.83745 17.9009C4.8665 17.6951 5.06849 17.4505 5.06273 17.2815C5.05876 17.1475 4.99079 17.0602 4.93255 16.9787C4.87431 16.8971 4.82772 16.8292 4.82772 16.8292C4.82772 16.8292 5.2258 16.5554 5.22196 15.4524C5.23009 15.4547 5.23791 15.458 5.24525 15.4621L5.44135 16.0193L5.57537 16.1824L6.08993 17.1416L6.75207 17.7844L7.73063 18.4426L8.34426 19.1104L8.40634 20.891L7.60442 21.9318L7.47309 22.1696C6.42973 21.6458 5.47296 20.9649 4.63623 20.1508L4.63636 20.1509Z" fill="#E5CB7A"/>
<path fill-rule="evenodd" clip-rule="evenodd" d="M7.08594 21.8543C7.08594 21.8543 7.09951 21.633 7.28203 21.4892C7.31122 21.5377 7.33055 21.5845 7.32479 21.6193C7.35781 21.5612 7.58885 21.1883 8.11122 21.0912C8.63359 20.9961 8.75979 20.6155 8.75979 20.6155L9.8684 19.6078L11.1364 18.4408L12.6781 17.899L13.3986 17.7222C13.3986 17.7222 13.4122 17.7747 13.3851 17.8912C13.519 17.8816 13.816 17.8136 14.1248 17.7048C14.2491 17.6563 14.3657 17.6368 14.4278 17.7009C14.519 17.7863 14.5326 17.9883 14.5384 18.1086C14.6879 18.0756 14.8607 17.932 14.9992 17.9456C15.2206 17.9689 15.4167 18.2291 15.642 18.2291C15.9391 18.2291 16.0729 18.0465 16.2808 17.9028C16.4051 17.8174 16.5837 17.7108 16.6847 17.6387C16.9254 17.462 19.473 16.6833 19.473 16.6833L20.3662 16.7416L20.5099 17.7008L20.4331 20.2083C20.4237 20.2174 20.4142 20.2269 20.4046 20.236L16.3434 22.3571L10.714 23.2201C9.45295 23.014 8.23605 22.5955 7.11512 21.9822L7.08632 21.8542L7.08594 21.8543Z" fill="#D8C173"/>
<path fill-rule="evenodd" clip-rule="evenodd" d="M4.97754 20.4699C5.05754 20.3026 5.12947 20.1627 5.14215 20.1127C5.15213 20.2135 5.17043 20.4348 5.2073 20.6701C5.1299 20.6043 5.05332 20.5375 4.97754 20.4698V20.4699Z" fill="#F1D789"/>
<path fill-rule="evenodd" clip-rule="evenodd" d="M9.08976 22.8297L9.81783 22.6272L9.87991 22.6466C9.87991 22.6466 9.91293 22.6661 9.91293 22.732C10.0042 22.6797 10.0819 22.6893 10.1382 22.6544C10.1673 22.7165 10.1963 22.9223 10.3246 22.9476C10.4585 22.9767 10.6022 22.8893 10.7479 22.7787C10.8915 22.6642 11.0551 22.5204 11.1789 22.4622C11.2243 22.5457 11.2645 22.6319 11.2993 22.7204C11.4624 22.5903 11.7459 22.0622 12.1497 22.0718C12.2665 21.7959 12.4615 21.5604 12.7106 21.3941C13.0854 21.1398 13.3203 21.1204 13.6135 21.1437C13.73 20.9924 13.8735 20.864 14.0368 20.765C14.0853 20.7845 14.2194 20.866 14.3864 20.7883C14.5554 20.7108 14.7456 20.4097 14.9961 20.3709C15.1311 20.3523 15.2683 20.3812 15.3844 20.4525C15.3844 20.4525 16.114 19.7281 16.6174 19.4873C16.598 19.4291 16.5592 19.2097 17.1494 18.7242C17.1824 18.7534 17.1591 18.8349 17.1824 18.8394C17.192 18.8394 17.336 18.7773 17.5183 18.6374C17.7436 18.4686 18.0134 18.2918 18.1765 18.2433C18.4837 18.152 18.8096 18.3384 18.8096 18.3384C18.8373 18.319 18.8682 18.3045 18.9008 18.2957C18.9784 18.2821 19.0347 18.2724 19.0775 18.2573C19.0736 18.3582 19.13 18.531 19.0775 18.6805C19.1383 18.7147 19.2027 18.7421 19.2695 18.7621C19.2366 18.8339 19.1646 19.0164 19.0443 19.1038C19.1452 19.1524 19.1588 19.2087 19.3025 19.2574C19.2443 19.339 19.1489 19.4789 19.1064 19.5646C19.0637 19.6559 18.9102 20.0345 18.8422 20.1781C18.7704 20.3219 18.6734 20.586 18.6267 20.6389C18.5799 20.6919 18.4111 20.9166 18.2811 21.0272C18.3963 20.9844 18.8676 20.8408 19.0675 20.7864C19.008 20.8737 18.7063 21.3213 18.4162 21.7518C17.0275 22.5842 15.4773 23.111 13.869 23.2972C12.2606 23.4834 10.631 23.3247 9.08887 22.8316L9.08976 22.8297Z" fill="#E0CD81"/>
<path fill-rule="evenodd" clip-rule="evenodd" d="M6.78409 10.1475C6.78409 10.1475 6.61526 10.1475 6.58224 10.1708C6.54921 10.1941 6.7512 10.2428 6.81328 10.2661C6.87536 10.2893 7.00937 10.3961 7.04432 10.4816C7.07734 10.5631 8.25788 11.0388 8.25788 11.0388L9.09283 10.996L9.3807 10.5983L8.83312 10.1187L9.21712 8.98669L8.70844 9.06823L7.48515 9.79783L6.87152 10.0328L6.78409 10.1475Z" fill="#DFC57C"/>
<path fill-rule="evenodd" clip-rule="evenodd" d="M8.61779 10.5223C8.62986 10.5418 8.64686 10.5579 8.66708 10.5688C8.6873 10.5797 8.71003 10.5851 8.73299 10.5844C8.90579 10.5844 9.0649 10.6271 9.13095 10.7144C9.24167 10.8543 9.54848 11.3009 9.54848 11.3009L10.2824 11.565L10.3298 10.7007L9.52787 10.1436L8.61523 10.4794V10.5222H8.61728L8.61779 10.5223Z" fill="#E5CC7C"/>
<path fill-rule="evenodd" clip-rule="evenodd" d="M8.47408 10.8428C8.47408 10.8428 8.60797 10.8525 8.77693 10.7903C8.94589 10.7281 9.22352 10.5942 9.34397 10.6467C9.5128 10.7185 9.47786 10.9438 9.66051 11.1459C9.77111 11.2702 9.97309 11.2663 10.0877 11.4004C10.2022 11.5344 10.5963 11.4722 10.5963 11.4722L10.7458 12.2786L10.1459 13.0476L9.94967 14.0029H9.1384L8.39728 13.7088L8.03223 12.8256L8.21475 11.9325L8.47408 10.8428Z" fill="#D2C281"/>
<path fill-rule="evenodd" clip-rule="evenodd" d="M10.0432 10.8815C10.0633 10.8877 10.0842 10.891 10.1053 10.8913C10.082 10.9107 10.0334 10.9534 10.0528 11.0641C10.0723 11.1748 10.1344 11.3146 10.082 11.3999C10.1238 11.4456 10.155 11.5 10.1733 11.5592C10.2063 11.6544 10.216 11.7417 10.4314 11.7554C10.4004 11.7745 10.3717 11.7974 10.3461 11.8234C10.3461 11.8234 10.4956 11.9534 10.5713 12.0737C10.6489 12.0704 10.8547 12.0064 10.8547 12.0064L10.8975 12.0356L10.9888 11.9972C10.9888 11.9972 10.9034 11.9642 10.9655 11.7564C11.0237 11.5739 11.0762 11.5836 11.0807 11.5701C11.0851 11.5565 11.1234 11.3642 11.1234 11.2865C11.1525 11.1857 11.1758 10.8789 11.1758 10.8789L11.1137 10.2012L10.7642 9.98951L10.4801 9.71521L10.2121 10.22L10.0355 10.396L10.022 10.8329L10.0432 10.8815Z" fill="#E2C270"/>
<path fill-rule="evenodd" clip-rule="evenodd" d="M10.8838 10.3147C10.8838 10.3147 10.9459 10.4913 10.9693 10.6272C10.9775 10.6008 10.9821 10.5734 10.9829 10.5457C10.9829 10.5457 11.0314 10.8137 11.041 10.9245C11.0604 10.9205 11.0794 10.9147 11.0837 10.9341C11.0881 10.9534 11.1324 11.1691 11.1221 11.2894C11.203 11.156 11.3149 11.0441 11.4483 10.9632C11.526 10.9146 11.6172 10.8622 11.7125 10.8583C11.862 10.8544 11.9706 10.9535 12.1493 10.9535C12.5803 10.9535 12.9707 10.637 13.2581 10.5399C13.4696 10.468 13.6522 10.4157 13.7803 10.299C13.8425 10.2467 13.9532 10.1302 14.0541 9.95728C14.1881 9.72688 14.3279 9.52631 14.4678 9.50109C14.4045 9.51272 14.3401 9.51727 14.2758 9.51466C14.2758 9.51466 14.3185 9.47191 14.391 9.41367C14.4634 9.35543 14.5502 9.28362 14.6744 9.28362C14.8958 9.28362 15.0064 9.31652 15.1307 9.31652C15.255 9.31268 15.3268 9.28362 15.3268 9.28362C15.3268 9.28362 15.457 9.37488 15.7501 9.37488C16.0433 9.37872 16.2394 9.40394 16.3929 9.41764C16.5464 9.43133 17.0608 9.37489 17.2084 9.37924C17.3046 9.38295 17.3991 9.40606 17.4862 9.44721L17.0104 8.06481L15.3013 6.57104L14.2839 7.29143L12.7187 8.85648L11.2042 9.41764L10.8876 9.77297V10.3147H10.8838Z" fill="#CCB360"/>
<path fill-rule="evenodd" clip-rule="evenodd" d="M14.282 9.52231C14.282 9.52231 14.3247 9.47968 14.3964 9.42144C14.4681 9.3632 14.5558 9.29127 14.6799 9.29127C14.9012 9.29127 15.012 9.32429 15.1363 9.32429C15.2605 9.32045 15.3324 9.29127 15.3324 9.29127C15.3324 9.29127 15.4627 9.3824 15.7556 9.3824C16.0489 9.38624 16.245 9.41146 16.3985 9.42503C16.5519 9.4386 17.0664 9.3824 17.214 9.38663C17.3101 9.39025 17.4046 9.41337 17.4916 9.4546L17.276 8.83124L17.0257 8.35559L16.311 7.573C16.311 7.573 15.4534 7.06816 15.4469 7.06432C15.4431 7.06048 15.1498 6.98279 15.1498 6.98279L14.3731 7.45268L13.6684 9.27604L13.6548 9.66004L14.111 9.87559C14.2255 9.68359 14.3519 9.52999 14.4703 9.51053C14.3634 9.52218 14.2819 9.52218 14.2819 9.52218L14.282 9.52231Z" fill="#D5B457"/>
<path fill-rule="evenodd" clip-rule="evenodd" d="M14.2724 9.65252C14.2045 9.65636 14.1483 9.64279 14.1327 9.59428C14.0744 9.43121 14.0278 9.40791 13.9791 9.40791C13.9303 9.40791 13.8645 9.51274 13.8255 9.52234C13.7864 9.53194 13.7401 9.40202 13.7401 9.40202L13.6973 9.38257C13.6973 9.38257 13.4468 9.54564 13.2702 9.7379C13.0936 9.93015 12.8041 10.2564 12.6741 10.3145C12.5441 10.3726 12.0973 10.3922 11.9445 10.4253C11.7917 10.4583 11.6222 10.569 11.5989 10.5942C11.5756 10.6194 11.667 10.6466 11.6806 10.6718C11.6941 10.6951 11.5309 10.6854 11.5174 10.7102C11.5078 10.7296 11.5558 10.8402 11.5796 10.8966C11.6212 10.8758 11.6669 10.8646 11.7135 10.8635C11.863 10.8597 11.9718 10.9588 12.1503 10.9588C12.5814 10.9588 12.9717 10.6422 13.2591 10.5451C13.4708 10.4733 13.6533 10.4208 13.7814 10.3043C13.8435 10.2519 13.9542 10.1353 14.0552 9.96254C14.1289 9.84414 14.2009 9.73342 14.2728 9.65188L14.2724 9.65252Z" fill="#D2B257"/>
<path fill-rule="evenodd" clip-rule="evenodd" d="M8.09 19.2622C8.09 19.2622 8.0516 19.1185 7.69576 18.7477C7.59477 18.6429 7.53269 18.5557 7.46472 18.4934C7.29576 18.334 7.19669 18.2914 7.07637 18.2001C6.81231 18.004 6.52495 18.004 6.30363 17.7632C6.08232 17.5225 5.8244 17.0624 5.6452 16.5923C5.46856 16.1224 5.41992 15.9729 5.41992 15.9593C5.41992 15.9458 5.46856 15.8545 5.53064 15.8681C5.59272 15.8816 5.59272 16.002 5.60834 16.0311C5.63927 16.0788 5.67435 16.1236 5.71317 16.165C5.80443 16.27 5.93448 16.3954 6.00053 16.5826C5.98696 16.4233 5.93256 16.2467 5.93256 16.2467C5.93256 16.2467 6.27432 16.4622 6.56552 16.6874C6.85877 16.9127 6.97909 16.9904 7.06472 17.134C7.15035 17.2776 7.35208 17.6564 7.44872 17.7671C7.54536 17.8778 8.86952 18.2952 8.86952 18.2952L9.49941 18.7648L9.81211 19.4503L9.56738 19.8343L9.09749 19.9353L8.33435 19.5935L8.09 19.2621V19.2622Z" fill="#D2B159"/>
<path fill-rule="evenodd" clip-rule="evenodd" d="M6.39453 16.901C6.39453 16.901 6.55376 17.1554 6.94212 17.3961C7.29168 17.6078 7.84503 17.8001 8.33834 17.9147C8.62173 17.9826 8.90525 18.035 9.15959 18.0389C9.84503 18.0485 10.3168 17.8526 10.9014 17.7884C11.218 17.7554 11.6063 17.7302 12.0101 17.6348C12.5285 17.5106 12.8354 17.3707 13.2529 17.174C13.5557 17.0343 13.8335 16.9294 14.0587 16.7954C14.3752 16.6091 14.6062 16.4013 14.8743 16.3392C14.8413 16.4305 14.8063 16.5936 14.5422 16.7625C14.682 16.7586 14.8743 16.749 14.8743 16.749C14.8743 16.749 14.6879 16.8596 14.3597 17.1081C14.1577 17.2617 13.8898 17.5217 13.616 17.6945C13.4393 17.8052 13.247 17.8865 13.1208 17.9528C12.8136 18.1218 12.6897 18.2071 12.4878 18.4136C12.5597 18.4098 12.5655 18.4136 12.5655 18.4136C12.5655 18.4136 12.3111 18.4466 12.1287 18.5436C12.0903 18.5436 12.0237 18.5301 11.9072 18.5631C11.816 18.5922 11.6955 18.6583 11.5714 18.6932C11.3946 18.7456 11.3365 18.7223 11.3365 18.7223L11.3655 18.7806C11.3655 18.7806 11.1351 18.7766 11.0583 18.7844C11.0719 18.7883 11.0681 18.7941 11.0681 18.7941C11.0546 18.7964 11.0416 18.801 11.0297 18.8077C10.9927 18.8317 10.9521 18.8493 10.9093 18.8601C10.8861 18.8639 10.8666 18.8639 10.8374 18.8698C10.8471 18.8931 10.9229 19.0234 10.9579 19.1002C10.9288 19.1196 10.4918 19.4498 10.4918 19.4498C10.5054 19.4711 10.5164 19.4939 10.5248 19.5177C10.5384 19.5604 10.5443 19.6226 10.5579 19.6516C10.5908 19.7099 10.6102 19.7196 10.6102 19.7196C10.6102 19.7196 10.5579 19.7293 10.4665 19.7526C10.3889 19.7721 10.2937 19.805 10.1593 19.8244C10.118 19.8298 10.0765 19.833 10.035 19.8341C10.0544 19.8769 10.1398 20.04 9.9825 20.2283C9.82519 20.4165 9.77668 20.4439 9.72816 20.5643C9.70374 20.5458 9.67775 20.5295 9.65047 20.5156C9.59812 20.4923 9.52618 20.4575 9.50096 20.4108C9.48626 20.473 9.46679 20.5341 9.44272 20.5933C9.39421 20.7234 9.3224 20.8516 9.30884 20.9486C9.25636 20.8904 9.15933 20.7758 9.02532 20.7991C8.8913 20.8224 8.78455 21.005 8.76125 21.0574C8.76125 21.0244 8.73796 20.9992 8.7322 21.038C8.72823 21.0807 8.6545 21.5272 8.24285 21.8884C8.23901 21.7972 8.23901 21.5952 8.22928 21.5292C8.19088 21.5676 8.14391 21.6244 7.86423 21.7448C7.59044 21.8651 7.63383 21.9856 7.63383 21.9856C7.63383 21.9856 7.61053 21.7936 7.75812 21.5913C7.90762 21.3895 7.99888 21.2942 7.99888 21.2788C7.99647 21.263 7.98974 21.2482 7.97943 21.236C7.95997 21.2165 7.92119 21.1932 7.92119 21.1778C7.94448 21.1682 8.17552 21.0574 8.16196 20.8282C8.14839 20.6225 8.06109 20.5156 7.99888 20.44C7.98928 20.4302 8.09028 20.3584 8.07658 20.3351C8.06685 20.3216 7.94269 20.2302 7.92708 20.1815C7.93075 20.1525 7.93726 20.1239 7.94653 20.0962C7.9601 20.0534 7.96983 20.0242 7.96599 19.9952C7.95626 19.9467 7.90378 19.8126 7.88829 19.7991C7.90186 19.8029 7.99888 19.7991 7.99888 19.7991C7.99888 19.7991 7.92132 19.6748 7.90762 19.6165C7.89392 19.5583 7.86487 19.4048 7.84938 19.3758C7.8824 19.3796 7.96394 19.3854 7.96394 19.3758C7.96791 19.3466 7.89213 19.2981 7.92554 19.2606C7.94884 19.2644 7.99351 19.2839 8.03613 19.3383C8.01284 19.2761 7.97405 19.1557 7.89239 19.1072C7.93079 19.0937 8.06135 19.0586 8.17591 19.1266C8.29047 19.1945 8.32951 19.2896 8.32951 19.2896C8.32951 19.2896 8.39748 19.3421 8.50244 19.4198C8.62276 19.5149 8.7761 19.6502 9.02084 19.746C9.07332 19.7751 9.2072 19.7751 9.30436 19.7557C9.34666 19.7456 9.38721 19.7293 9.42468 19.7072C9.4382 19.6992 9.45253 19.6927 9.46743 19.6877C9.44655 19.6458 9.42255 19.6056 9.39562 19.5673C9.42864 19.5673 9.46743 19.5712 9.46743 19.5712C9.46743 19.5712 9.49072 19.5188 9.38589 19.4176C9.40919 19.3943 9.43837 19.3792 9.43837 19.3399C9.40535 19.3361 9.34711 19.2876 9.33354 19.2681C9.35287 19.2546 9.38205 19.2099 9.41508 19.1963C9.38589 19.173 9.31408 19.0759 9.28106 19.0663C9.31261 19.0546 9.34313 19.0403 9.37232 19.0235C9.37232 19.0235 9.20925 18.9808 9.15677 18.9458C9.10429 18.9074 9.02672 18.841 8.98013 18.8215C8.93149 18.8021 8.84612 18.7925 8.81117 18.7536C8.84407 18.7633 8.89655 18.7536 8.93546 18.7536C8.96452 18.7536 8.97821 18.7574 8.98781 18.7574C8.98397 18.7438 8.98397 18.7147 9.05975 18.7051C9.0962 18.6996 9.13156 18.6884 9.16458 18.672C9.16458 18.672 9.09264 18.6682 9.01098 18.5905C8.92932 18.5128 8.86148 18.4507 8.81488 18.441C8.76637 18.4313 8.67511 18.474 8.61879 18.47C8.54109 18.4604 8.50807 18.4215 8.50807 18.4215C8.50807 18.4215 8.24989 18.4448 7.67709 18.0954C7.18186 17.7924 6.96631 17.5245 6.96631 17.5245C6.91996 17.5077 6.87516 17.4869 6.83242 17.4623C6.64605 17.3653 6.38775 17.1633 6.39556 16.8991L6.39453 16.901Z" fill="#C2A44D"/>
<path fill-rule="evenodd" clip-rule="evenodd" d="M13.5382 5.2466C13.5831 5.26119 13.6231 5.28811 13.6534 5.32429C13.7447 5.42912 13.8029 5.62714 13.5952 5.83885C13.6767 5.86791 13.7104 5.87725 13.7815 5.86791C13.7097 5.95341 13.5467 6.13594 13.5369 6.29517C13.5272 6.42522 13.6087 6.46413 13.6087 6.46413C13.6087 6.46413 13.4845 6.60775 13.4787 6.84813C13.5374 6.78194 13.6016 6.72088 13.6707 6.6656C13.8144 6.55104 14.0125 6.421 14.1465 6.33946C14.1447 6.37363 14.1493 6.40785 14.16 6.44032C14.16 6.44032 14.4104 6.2345 14.6208 6.32589C14.7159 6.36864 14.6732 6.50253 14.6732 6.50253C14.6732 6.50253 14.8034 6.45402 14.8946 6.54528C14.9859 6.63655 15.1149 6.87194 15.1811 6.9632C15.2102 7.00596 15.2859 7.08749 15.3635 7.2137C15.4695 7.3904 15.558 7.57701 15.6277 7.77088C15.6315 7.66989 15.6567 7.51271 15.9442 7.61165C16.2316 7.71264 16.5577 7.92436 16.8315 8.34125C17.1053 8.75815 17.1732 9.2288 17.311 9.408C17.4508 9.5808 17.5945 9.86816 17.6043 9.98861C17.614 10.1091 17.5615 10.4973 17.8489 11.5478C17.9304 11.2216 18.0547 10.4973 18.0547 10.4973L18.1227 9.85844L18.2004 7.88173L16.1362 6.16692L14.5227 4.99597L13.4722 5.09696L13.5381 5.24647L13.5382 5.2466Z" fill="#CAA13E"/>
<path fill-rule="evenodd" clip-rule="evenodd" d="M17.373 8.1883C17.373 8.1883 17.3438 7.9963 16.8585 7.6699C16.373 7.34759 15.9943 7.34759 15.6449 7.0738C15.3769 6.85825 15.0973 6.36301 14.9153 6.19994C14.7385 6.03879 14.7095 5.57274 14.7095 5.57274L15.3056 5.07354L16.1921 3.79214L16.9415 2.96692L17.3007 3.46612L17.7999 4.05249L18.0775 5.22919L18.1785 6.95156L17.3721 8.18842L17.373 8.1883Z" fill="#B59544"/>
<path fill-rule="evenodd" clip-rule="evenodd" d="M17.9735 10.2528C17.9882 9.99163 17.9559 9.72991 17.8783 9.48009C17.7503 9.08201 17.4706 8.3752 17.3407 8.11049C17.2882 7.81725 17.3271 7.79395 17.3834 7.76093C17.4397 7.7279 17.6515 7.60733 17.7674 7.18429C17.8834 6.76125 18.2432 6.74742 18.2432 6.74742L18.4645 6.58435L18.8005 7.42505L19.0936 8.18435L19.1849 8.76496L19.2529 9.26006L19.0936 10.3067L18.3073 11.0174L17.9734 10.2528H17.9735Z" fill="#C89D3A"/>
<path fill-rule="evenodd" clip-rule="evenodd" d="M7.00049 21.9186V21.8971C7.01683 21.8869 7.03125 21.8739 7.04311 21.8587C7.05668 21.8393 7.06654 21.816 7.07614 21.8102C7.09559 21.8005 7.18686 21.7718 7.23537 21.781C7.28388 21.7902 7.41214 21.8431 7.4801 21.8393C7.61988 21.8354 7.78295 21.7286 8.04126 21.7772C8.42961 21.849 8.52087 22.1131 8.74615 22.2626C8.89975 22.3675 9.05873 22.3208 9.08202 22.3208H9.13438C9.1441 22.3208 9.21591 22.2393 9.25482 22.2432C9.33252 22.2471 9.3402 22.3112 9.38871 22.315C9.50327 22.3286 9.72471 22.2568 9.83543 22.286C9.86826 22.2963 9.89812 22.3143 9.92246 22.3387C9.9468 22.363 9.96489 22.3928 9.97521 22.4256C9.9985 22.4974 9.97905 22.5887 9.92273 22.6412C9.80241 22.7518 9.68785 22.8567 9.66455 22.9484C9.69418 22.971 9.72264 22.9951 9.7498 23.0206C8.78906 22.7758 7.86469 22.4057 7.00049 21.9198V21.9186Z" fill="#CEB052"/>
<path fill-rule="evenodd" clip-rule="evenodd" d="M17.3403 18.0389C17.3403 18.0389 17.6432 17.635 17.7481 17.435C17.853 17.2288 17.4161 14.6176 17.4161 14.6176L18.2938 11.7419L18.2704 10.806C18.2704 10.806 18.3131 9.94184 18.4141 9.56706C18.5346 9.78261 18.9094 10.0428 18.9909 10.1807C19.0293 9.9165 19.1597 9.35931 19.1404 8.76514C19.2122 8.87573 19.385 9.98843 19.385 9.98843L19.5578 10.7379L19.7831 11.534L20.0336 12.3749L20.1831 12.9555L20.2685 13.0952L20.3404 13.3399L20.4084 13.604L20.6045 14.2234L20.7197 14.7321L20.8109 15.6545C20.8308 15.7251 20.8451 15.7972 20.8537 15.87C20.8575 15.971 20.8401 16.0293 20.8401 16.0468C20.8401 16.0643 20.8731 16.2681 20.8596 16.4216C20.8401 16.5752 20.8401 16.6954 20.7197 16.8056C20.5992 16.9158 20.5236 17.5745 20.5236 17.5745L20.308 17.4309C20.308 17.4309 20.3508 17.2346 20.2498 17.0561C20.1488 16.8775 19.9527 16.8405 19.842 16.8697C19.7314 16.893 19.5101 16.9278 19.4381 16.99C19.3702 17.0521 19.2032 17.2444 19.0498 17.3318C18.8578 17.447 18.5449 17.4561 18.378 17.4949C18.2091 17.5333 18.0227 17.6485 17.8265 17.7822C17.6726 17.8818 17.5102 17.9675 17.3411 18.0382V18.0382L17.3403 18.0389Z" fill="#CCA847"/>
<path fill-rule="evenodd" clip-rule="evenodd" d="M17.3403 22.2816C17.3403 22.2816 17.3531 22.2899 17.3778 22.3035C18.7574 21.6571 19.9934 20.741 21.013 19.6091C21.0019 19.2161 20.9874 18.8133 20.9716 18.664C20.9387 18.3475 20.962 18.0252 20.9522 17.8388C20.9425 17.6524 20.8377 16.8932 20.7892 16.6971C20.7367 16.501 20.6356 16.4038 20.6202 16.4038C20.6066 16.4078 20.525 16.7728 20.525 16.8646C20.525 16.9564 20.5055 17.1773 20.5055 17.2336C20.4919 17.2297 20.4862 17.1952 20.4862 17.1812C20.4667 17.2297 20.4434 17.3152 20.4337 17.3249C20.424 17.3346 20.4473 17.2434 20.4337 17.2239C20.4201 17.2044 20.3953 17.2142 20.4007 17.1657C20.403 17.1369 20.4075 17.1084 20.4143 17.0803C20.4143 17.0803 20.356 17.1657 20.3134 17.3831C20.2706 17.5987 20.2706 17.6046 20.2551 17.6239C20.2416 17.6473 20.1639 17.7249 20.1599 17.7541C20.1561 17.8064 20.2319 17.8589 20.2376 17.888C20.2415 17.9366 20.1696 18.1618 20.1463 18.272C20.1231 18.3822 20.1328 18.5981 20.1079 18.7088C20.0885 18.8098 20.0695 18.8681 20.0031 18.9107C20.0516 18.9204 20.0982 18.934 20.0982 18.934C20.0982 18.934 20.1662 19.2213 19.9934 19.4661C19.9313 19.5515 19.9158 19.5904 19.8498 19.6681C19.7196 19.8117 19.6186 19.9753 19.6089 20.0816C19.6022 20.0502 19.5976 20.0184 19.5953 19.9864C19.5953 19.9864 19.3935 20.2214 19.3079 20.3554C19.1974 20.5282 19.0439 20.5185 19.0007 20.5612C18.9576 20.604 18.9483 20.6816 18.9623 20.7438C18.9239 20.7534 18.8518 20.7671 18.8031 20.9166C18.7798 20.9941 18.7216 21.0702 18.6303 21.1224C18.5391 21.1746 18.4283 21.1904 18.372 21.2039C18.4205 21.2175 18.44 21.2175 18.4633 21.233C18.4342 21.2815 18.3002 21.3573 18.1507 21.4544C18.0012 21.5457 17.9293 21.6796 17.8924 21.767C17.854 21.8485 17.7973 21.901 17.706 21.9108C17.7444 21.934 17.8013 21.9883 17.8303 22.0059C17.7876 22.0156 17.7151 22.0156 17.5857 22.1263C17.4498 22.2389 17.4032 22.272 17.341 22.2817L17.3403 22.2816Z" fill="#C39D3C"/>
<path fill-rule="evenodd" clip-rule="evenodd" d="M14.6383 23.1814C14.7127 23.1293 14.7932 23.0866 14.8781 23.0543C15.1809 22.934 15.5013 22.9107 15.6275 22.8719C15.748 22.8335 15.8431 22.7805 15.9926 22.7515C15.9886 22.7855 15.9853 22.8175 15.9817 22.8477C15.5409 22.9863 15.0921 23.0977 14.6377 23.1814H14.6383Z" fill="#D2BA6B"/>
<path fill-rule="evenodd" clip-rule="evenodd" d="M20.2241 15.2156C20.2241 15.2156 20.1621 15.5514 20.0513 15.7631C19.9406 15.9749 19.8209 16.268 19.8209 16.268C19.8217 16.2019 19.8295 16.1361 19.8442 16.0718C19.7045 16.1533 19.3646 16.3495 19.2682 16.4368C19.177 16.5183 19.0235 16.6621 18.9847 16.7301C19.076 16.4622 19.1711 16.2214 19.1867 16.1107C19.0469 16.2117 18.3944 16.7495 18.0547 17.1048L16.9964 17.9612C16.8742 18.027 16.7485 18.0859 16.6197 18.1375C16.4373 18.2151 16.2217 18.2812 16.0625 18.3434C16.1052 18.2288 16.1731 18.1277 16.2683 18.0307C16.3693 17.9356 16.6721 17.6074 16.7187 17.4547C16.7615 17.2954 16.7712 17.2003 16.7149 17.0663C16.6624 17.0799 16.5421 17.0858 16.4606 17.1091C16.379 17.1324 16.2916 17.2197 16.2916 17.2197C16.2916 17.2197 16.3537 16.8643 16.4877 16.5285C16.3867 16.5323 16.2139 16.5614 16.2139 16.5614C16.2139 16.5614 16.4547 16.1575 16.8667 15.876C16.7405 15.9029 16.617 15.9412 16.4978 15.9905C16.257 16.0915 15.993 16.241 15.7969 16.3225C15.9075 16.1689 16.6842 15.0604 17.1464 14.0273C17.6072 12.9963 17.7793 12.7322 17.8803 12.1789C17.9327 11.9051 17.9187 11.5005 17.9327 11.1381C17.9463 10.7788 17.9909 10.4565 17.9619 10.241C18.0822 10.3905 18.5327 10.8118 18.5482 11.7537C18.5618 12.6954 18.1173 13.9673 17.6453 14.6526C17.7605 14.6856 18.059 14.7246 18.3657 14.1918C18.6724 13.6591 18.6687 13.5103 18.7794 13.2889C18.793 13.3996 18.789 13.4384 18.789 13.4384C18.789 13.4384 19.2357 12.8967 19.4473 12.2151C19.4901 12.5084 19.6163 12.7667 19.4181 13.3045C19.2415 13.7899 19.0104 13.9084 19.0104 13.9084C19.0104 13.9084 19.125 13.889 19.2938 13.788C19.323 13.8598 19.3173 13.9416 19.3658 13.9705C19.4143 13.9994 19.4803 14.0482 19.4901 14.0948C19.5424 14.0171 19.6239 13.918 19.6493 13.8443C19.6298 13.9979 19.6163 14.6695 19.6877 15.0113C19.8373 14.9977 19.9907 14.988 20.0955 14.718C20.0237 14.9822 20.0237 15.1413 20.0722 15.3666C20.1518 15.3123 20.2236 15.2152 20.2236 15.2152L20.2241 15.2156Z" fill="#C0993A"/>
<path fill-rule="evenodd" clip-rule="evenodd" d="M15.1791 4.51268C15.1791 4.51268 15.0296 4.57476 14.7753 4.57476C14.554 4.57476 14.6161 4.48938 14.2705 4.48938C13.7385 4.48938 11.8802 4.79658 11.5539 4.79223C11.3422 4.78839 12.2684 4.88349 12.2684 4.88349L14.6355 4.91652L15.1112 4.87812L15.2879 4.51844L15.1791 4.51268Z" fill="#A88F33"/>
<path fill-rule="evenodd" clip-rule="evenodd" d="M9.04093 9.1398C9.04093 9.1398 8.73795 9.37084 8.60983 9.54761C8.4817 9.72438 8.41373 9.84073 8.26807 9.98447C8.30226 9.98578 8.33642 9.98119 8.36906 9.9709C8.36906 9.9709 8.36906 10.0093 8.34576 10.0194C8.36589 10.0172 8.38627 10.0194 8.40541 10.0261C8.42454 10.0327 8.44195 10.0436 8.45635 10.0578C8.4136 10.0811 8.29712 10.1977 8.38839 10.3356C8.45635 10.4404 8.6001 10.45 8.6001 10.45C8.6001 10.45 8.56707 10.5452 8.70493 10.5355C9.00202 10.5219 9.33405 10.3918 9.48739 10.4248C9.64099 10.4632 9.72829 10.4773 9.83696 10.6657C9.95216 10.8521 10.0525 10.8812 10.0525 10.8812C10.0525 10.8812 10.1205 10.7083 10.105 10.4501C10.1607 10.311 10.1916 10.1631 10.1963 10.0133L10.0953 9.26959L9.65456 8.71228L9.08368 9.02882L9.04093 9.13942V9.1398Z" fill="#E3C571"/>
<path fill-rule="evenodd" clip-rule="evenodd" d="M9.58301 9.02917C9.58301 9.02917 9.62576 9.13016 9.80445 9.13976C9.78499 9.18251 9.78499 9.1884 9.79088 9.22129C9.79472 9.25432 9.80048 9.30283 9.80048 9.30283C9.82015 9.29331 9.83793 9.2803 9.85296 9.26443C9.86269 9.30718 9.84323 9.37502 9.85296 9.42366C9.85896 9.45324 9.86873 9.48194 9.88202 9.50904C9.88485 9.5024 9.8881 9.49594 9.89174 9.48971C9.89558 9.47998 9.93014 9.59454 10.0258 9.68171C10.0257 9.66831 10.029 9.6551 10.0354 9.64331C10.0368 9.66766 10.0449 9.69115 10.0587 9.71128C10.0515 9.70787 10.045 9.70328 10.0393 9.69771C10.0393 9.69771 10.0489 10.0049 10.1014 10.1638C10.1102 10.1535 10.118 10.1424 10.1247 10.1307C10.1247 10.1211 10.1209 10.2162 10.1111 10.2843C10.0976 10.3523 10.1073 10.4474 10.1073 10.4474C10.1423 10.4198 10.1808 10.397 10.2217 10.3794C10.28 10.356 10.3753 10.2842 10.4334 10.125C10.4672 10.0348 10.4931 9.94192 10.5111 9.84734C10.5299 9.88349 10.5429 9.92236 10.5495 9.96254C10.5535 10.0111 10.6448 9.98584 10.6448 9.98584L10.6642 9.77413L10.7794 9.29451L10.8843 8.99742L11.3891 8.21112L12.3012 7.50865L13.0974 7.69118L13.7691 6.77854L12.6119 6.08337L11.5167 6.19793L10.5228 7.57457L9.72675 8.82321L9.58301 9.02904V9.02917Z" fill="#D8B65B"/>
<path fill-rule="evenodd" clip-rule="evenodd" d="M15.3188 7.03689C15.3188 7.03689 15.2508 7.05046 15.0547 7.15209C14.8586 7.25372 14.7227 7.28598 14.6469 7.43548C14.5711 7.58498 14.5654 7.70351 14.5654 7.70351C14.5654 7.70351 14.6994 7.64527 14.7771 7.62582C14.8586 7.60649 14.9499 7.61225 14.9402 7.64527C14.9308 7.66792 14.9179 7.68889 14.9018 7.70735C14.9018 7.70735 15.0554 7.70351 15.0513 7.77929C15.0472 7.85506 15.0222 7.93852 14.9932 7.97538C14.964 8.01378 14.8436 8.07062 14.8301 8.11529C14.7971 8.20655 14.8436 8.21039 14.8261 8.28412C14.8125 8.35606 14.7485 8.49583 14.5388 8.74044C14.3232 8.98518 14.2316 9.15798 14.2316 9.15798C14.2316 9.15798 14.1267 8.96188 14.0723 8.79292C14.0339 8.81225 13.8277 8.92681 13.8277 8.92681L13.35 7.26281L13.3596 7.15209C13.3596 7.15209 13.4024 7.09974 13.4121 7.00258C13.3403 6.97929 13.3306 6.95983 13.2353 6.8687C13.1401 6.77756 13.0625 6.66671 12.9034 6.59094C12.8801 6.54818 12.8509 6.49007 12.7345 6.46665C12.618 6.44322 12.5481 6.42402 12.5481 6.42402C12.5481 6.42402 12.6102 6.4006 12.6394 6.35209C12.5674 6.36182 12.5093 6.38511 12.352 6.38127C12.1928 6.3773 12.1752 6.37154 12.0879 6.38511C12.0006 6.39868 11.8959 6.43759 11.8569 6.30358C11.8141 6.27055 11.7229 6.29974 11.6452 6.41417C11.5675 6.5286 11.5404 6.61999 11.3908 6.66466C11.3803 6.73057 11.3573 6.79383 11.3229 6.85103C11.2801 6.92297 11.2122 6.99478 11.1209 7.10153C10.9772 7.27049 11.0004 7.54812 10.7713 7.75983C10.5403 7.97142 10.8097 7.17334 10.8097 7.17334L11.1786 6.29014L12.2291 5.26294L13.8602 5.15234L14.0195 5.99714L14.8156 6.27094L15.3185 7.03791L15.3188 7.03689Z" fill="#D3AE4D"/>
<path fill-rule="evenodd" clip-rule="evenodd" d="M15.5773 7.22324L14.8919 6.23495L14.4123 5.86592C14.4123 5.86592 14.0705 5.23693 14.0472 5.21748C14.0278 5.20391 13.7055 5.16896 13.4996 5.1554L13.538 5.2505C13.583 5.26509 13.6229 5.29201 13.6532 5.3282C13.7445 5.43303 13.8027 5.63104 13.595 5.84276C13.6765 5.87181 13.7102 5.88116 13.7814 5.87181C13.7096 5.95732 13.5465 6.13984 13.5368 6.29908C13.527 6.42912 13.6086 6.46791 13.6086 6.46791C13.6086 6.46791 13.4843 6.61165 13.4785 6.85191C13.5372 6.78572 13.6014 6.72465 13.6705 6.66938C13.8143 6.55418 14.0123 6.42464 14.1463 6.34311C14.1445 6.37732 14.1491 6.41158 14.1599 6.4441C14.1599 6.4441 14.4102 6.23828 14.6207 6.32954C14.7158 6.37229 14.673 6.50631 14.673 6.50631C14.673 6.50631 14.8032 6.4578 14.8945 6.54906C14.9857 6.64032 15.1158 6.8752 15.1818 6.9666C15.2109 7.00935 15.2866 7.09088 15.3642 7.21696C15.4702 7.39369 15.5587 7.58035 15.6284 7.77428C15.6322 7.69658 15.6479 7.58791 15.782 7.58791L15.5781 7.22285L15.5773 7.22324Z" fill="#CAA13E"/>
<path fill-rule="evenodd" clip-rule="evenodd" d="M5.30135 10.0311C5.30135 10.0311 5.25283 9.91061 5.30135 9.67573C5.34986 9.44085 5.42563 9.33013 5.45085 8.98453C5.47607 8.63893 5.70135 8.20783 5.70135 8.20783L6.32458 7.92444L6.76541 8.04476L6.89546 8.63509L6.33815 8.94229C6.33815 8.94229 6.30909 9.07234 6.15178 9.17717C5.99447 9.28201 5.77699 9.36354 5.72464 9.47042C5.69335 9.53587 5.67051 9.60503 5.65667 9.67625C5.65667 9.67625 5.49744 9.64322 5.40234 9.74805C5.30135 9.85493 5.30519 9.95004 5.30135 10.0316V10.0311Z" fill="#F4EFC8"/>
<path fill-rule="evenodd" clip-rule="evenodd" d="M6.55959 9.87374C6.55959 9.87374 6.50711 9.90677 6.46833 9.98894C6.42993 9.92686 6.33815 9.55784 6.33431 9.22581C6.33047 8.89377 6.31063 8.81147 6.38743 8.69704C6.46423 8.58261 6.76542 8.46203 6.72267 8.25595C6.67991 8.05985 6.50123 7.97832 6.28183 8.03464C6.12823 8.07304 6.01393 8.39969 5.8547 8.56276C5.73425 8.68705 5.59063 8.6676 5.55185 8.73556C5.49937 8.82683 5.54788 8.91809 5.53239 8.97633C5.52843 8.99579 5.47991 9.10062 5.39249 9.22683C5.21585 9.48117 4.91684 9.84046 4.87793 10.1628C4.8915 9.98024 4.8819 9.9764 4.93041 9.77441L4.90123 9.7259L5.09323 9.09678L5.21751 8.57838L5.49527 7.71029L5.98449 6.82299L6.46027 6.29089L6.95537 6.32392L7.01361 7.0676L7.29713 8.46382L7.89323 9.19777L6.93783 9.84072L6.55921 9.87374H6.55959Z" fill="#EBCC73"/>
<path fill-rule="evenodd" clip-rule="evenodd" d="M6.85661 10.1376C6.85661 10.1376 6.77508 10.157 6.74589 10.1415C6.71671 10.126 6.68778 10.1085 6.69738 10.0891C6.70698 10.0696 6.75946 10.0367 6.75946 10.0211C6.76054 10.007 6.75608 9.993 6.74702 9.98212C6.73796 9.97125 6.72502 9.96433 6.71095 9.96284C6.66628 9.95708 6.65271 9.98614 6.65271 9.98614C6.65271 9.98614 6.60996 9.95324 6.57514 9.94774C6.59574 9.94522 6.61647 9.94389 6.63722 9.94377C6.58356 9.91947 6.52664 9.90312 6.46826 9.89526C6.51677 9.8662 6.61201 9.7807 6.67409 9.7807C6.73617 9.7807 6.77508 9.7711 6.76535 9.73808C6.75562 9.70505 6.70711 9.65654 6.65476 9.63708C6.67409 9.61379 6.68778 9.57884 6.64119 9.48348C6.59255 9.38838 6.61201 9.32425 6.62762 9.30108C6.64119 9.2719 6.6897 9.21955 6.713 9.18652C6.73629 9.1535 6.75575 9.10883 6.79453 9.08553C6.81399 9.07196 6.87607 9.04713 6.93828 9.02345C7.00625 9.00016 7.06257 8.97097 7.10135 9.00016C7.1441 9.02921 7.12465 9.06812 7.12465 9.06812C7.12465 9.06812 7.25866 9.01948 7.37898 9.08169C7.49943 9.1398 7.79268 9.1768 7.79268 9.1768L7.89777 9.38851L7.2026 9.9846L6.91524 10.1283L6.857 10.1379L6.85661 10.1376Z" fill="#E5C66B"/>
<path fill-rule="evenodd" clip-rule="evenodd" d="M7.82154 9.16311C7.82154 9.16311 7.60598 9.30685 7.55747 9.35921C7.58653 9.36317 7.63504 9.38263 7.61559 9.41169C7.59229 9.44074 7.45251 9.54173 7.37482 9.63697C7.29328 9.73207 7.21559 9.85252 7.18845 9.91076C7.15939 9.96311 6.93795 10.1166 6.8623 10.1359C7.02154 10.1359 7.34192 9.93981 7.46224 9.93981C7.4584 9.99805 7.49526 10.0641 7.56323 10.0699C7.6312 10.0756 7.8273 10.1126 8.09136 9.94954C8.35542 9.79031 8.26813 9.67178 8.37872 9.59421C8.59043 9.45431 8.67581 9.33002 8.79229 9.25245C8.90877 9.17489 8.96906 9.15722 8.96906 9.15722C8.96906 9.15722 8.9729 9.09898 9.00746 9.10487C9.01692 9.10595 9.0259 9.1096 9.03343 9.11543C9.04097 9.12125 9.04677 9.12902 9.05021 9.13789C9.05021 9.13789 9.25219 8.99415 9.51101 8.95537C9.50497 8.95267 9.50014 8.94784 9.49744 8.9418C9.49744 8.9418 9.51677 8.93207 9.52074 8.92234C9.52074 8.92234 9.5343 8.90289 9.54403 8.91261C9.55376 8.92234 9.56733 8.99415 9.58679 9.02333C9.62954 9.00388 9.71107 8.82135 9.71107 8.82135L9.9073 8.2602V7.74756L9.7537 7.77674L8.6017 8.26596L7.90256 8.99031L7.82102 9.16311H7.82154Z" fill="#E6BD62"/>
<path fill-rule="evenodd" clip-rule="evenodd" d="M11.1384 6.64861C11.2007 6.63349 11.2604 6.60925 11.3157 6.57668C11.2924 6.63888 11.2924 6.70685 11.1914 6.85444C11.0904 7.00202 11.0865 7.0234 11.005 7.17674C10.9235 7.33597 10.9137 7.56509 10.836 7.66596C10.8709 7.64903 10.9082 7.63792 10.9466 7.63306C10.9466 7.63306 10.8691 7.70103 10.836 7.77284C10.803 7.84464 10.7448 7.99415 10.6012 8.08554C10.4575 8.17693 10.2749 8.23504 10.0788 8.4506C9.88257 8.66218 9.68071 8.93021 9.57959 9.0266C9.63207 8.93533 9.70388 8.7528 9.72333 8.63248C9.74279 8.51216 9.71937 8.36829 9.75239 8.20919C9.78541 8.05008 9.78541 7.9354 9.94439 7.65764C10.1034 7.37988 10.3755 6.41488 10.3755 6.41488L10.9619 6.22852L11.1386 6.64797L11.1384 6.64861Z" fill="#B6933F"/>
<path fill-rule="evenodd" clip-rule="evenodd" d="M10.7151 6.29321C10.7151 6.29321 10.5384 6.54754 10.4899 6.77282C10.4414 6.9981 10.4859 6.97864 10.4569 7.08936C10.4395 7.15687 10.4395 7.22768 10.4569 7.29519C10.5181 7.19663 10.6018 7.11406 10.7012 7.05429C10.8683 6.95343 11.0042 6.88149 11.0852 6.79612C11.1668 6.70485 11.2347 6.55535 11.4114 6.44079C11.3396 6.43106 11.2386 6.39804 11.2194 6.40239C11.2913 6.32085 11.5067 6.19656 11.7242 6.04706C11.9398 5.89346 11.9262 5.83151 12.2758 5.67816C12.1612 5.69762 12.1068 5.66844 12.0116 5.67816C12.05 5.59663 12.1844 5.55772 12.3188 5.42383C12.4532 5.28994 12.2334 5.0918 12.2334 5.0918L11.2094 5.71119L10.7143 6.29372L10.7151 6.29321Z" fill="#C49937"/>
<path fill-rule="evenodd" clip-rule="evenodd" d="M7.93604 5.831L7.95933 5.64463L8.25258 5.17475L8.5594 4.34953V3.22134L8.5361 2.56892L8.58461 2.14166L8.62147 2.00585L8.66039 1.95337L8.91076 2.08342L9.25648 2.55331L9.28951 3.46018L8.95351 4.89123L7.99427 5.93788L7.93604 5.831Z" fill="#DFC068"/>
<path fill-rule="evenodd" clip-rule="evenodd" d="M8.6992 1.90093C8.6992 1.90093 8.5456 1.9049 8.51283 2.54375C8.48006 3.18259 8.46419 3.51847 8.4409 3.83501C8.4176 4.15155 8.36333 4.34368 8.33606 4.53018C8.3088 4.71667 8.29331 4.97088 8.20602 5.12627C8.16762 5.19808 8.08557 5.42336 7.89331 5.59232C7.67776 5.77869 7.35571 5.90887 7.30694 5.9186C7.22144 5.93792 6.78842 5.98067 6.61178 6.07783C6.5497 6.11085 6.44282 6.14963 6.32442 6.26035C6.08941 6.47194 5.77683 6.85056 5.55155 7.30688C5.20595 7.98848 4.86035 9.91271 4.86035 9.91271L4.93805 9.78266C4.93805 9.78266 4.94778 9.60986 5.12058 9.30688C5.28954 9.00403 5.24102 8.6642 5.4759 8.08359C5.56717 7.86228 5.68173 7.57491 5.8215 7.33018C6.04294 6.9321 6.31085 6.59034 6.5808 6.40397C7.0215 6.10112 7.50701 6.03507 7.50701 6.03507L8.02938 5.68947C8.02938 5.68947 8.12064 5.51283 8.24109 5.31085C8.40992 5.02746 8.62509 4.71091 8.67206 4.25075C8.744 3.56915 8.57107 3.12256 8.5808 2.71872C8.59053 2.31488 8.59437 2.01779 8.67603 1.94586C8.7577 1.87392 8.69933 1.90119 8.69933 1.90119L8.6992 1.90093Z" fill="#A88F33"/>
<path fill-rule="evenodd" clip-rule="evenodd" d="M8.69947 4.94946C8.69947 4.94946 8.92987 4.38242 9.03534 3.8795C9.0548 3.77851 9.09358 3.67765 9.10331 3.59611C9.15182 3.12034 9.16539 2.92424 9.10331 2.66402C9.0548 2.47202 8.86843 2.29896 8.77128 2.16482C8.67618 2.02491 8.6315 1.97282 8.65096 1.94338C8.67042 1.91394 8.74606 1.86581 8.81979 1.87157C8.89816 1.87385 8.97525 1.89205 9.04637 1.92505C9.11749 1.95806 9.18115 2.00519 9.23349 2.06357C9.38299 2.23637 9.50139 2.82286 9.50139 2.82286L9.62594 3.59675L9.94248 4.57147L8.69973 4.95022L8.69947 4.94946Z" fill="#C99E3D"/>
<path fill-rule="evenodd" clip-rule="evenodd" d="M10.8644 4.35936C10.8644 4.35936 10.8216 4.37868 10.7441 4.35936C10.7474 4.39106 10.7419 4.42305 10.7281 4.45182C10.7144 4.4806 10.6931 4.50503 10.6664 4.52243C10.5848 4.4894 9.82155 4.55545 9.82155 4.55545C9.82155 4.55545 9.46623 4.49324 9.35551 4.02336C9.27794 3.71065 9.41375 3.27968 9.36907 2.99616C9.30111 2.57862 9.206 2.49696 9.19627 2.36704C9.18655 2.23712 9.17682 2.20396 9.17682 2.12243C9.13407 2.1127 9.10885 2.09913 9.06623 2.09913C9.0565 2.06073 9.07583 2.0272 9.0332 1.95923C9.0565 1.96896 9.21573 1.98841 9.4021 2.16505C9.5557 2.3088 9.5557 2.36115 9.57887 2.39033C9.60792 2.41939 9.84293 2.62073 9.94392 2.82144C10.0449 3.02214 10.241 3.66214 10.2857 3.76697C10.2993 3.80972 10.3284 3.85248 10.4009 3.9495C10.5135 4.0894 10.6785 4.3207 10.8649 4.3591L10.8644 4.35936Z" fill="#B58634"/>
<path fill-rule="evenodd" clip-rule="evenodd" d="M9.60645 2.40002C9.72407 2.59004 9.82975 2.7872 9.92286 2.99036C10.0374 3.24854 10.1054 3.46025 10.2491 3.63305C10.1714 3.4079 10.0336 2.96514 9.95205 2.80783C9.86078 2.64143 9.67441 2.46223 9.60645 2.40015V2.40002Z" fill="#A88F33"/>
<path fill-rule="evenodd" clip-rule="evenodd" d="M8.28591 5.59229C8.28591 5.59229 8.08982 5.6408 7.72476 5.83306C7.60431 5.89514 7.48988 5.94749 7.37916 5.99613C7.09154 6.12618 6.78306 6.24637 6.53833 6.31267C6.55778 6.33597 6.56738 6.34557 6.56738 6.34557C6.56738 6.34557 6.56738 6.4408 6.61986 6.49507C6.59081 6.52426 6.20233 6.78832 6.31702 7.67178C6.39458 7.64272 6.48585 7.60381 6.49942 7.60381C6.52284 7.60778 6.5286 7.67178 6.55766 7.67178C6.58671 7.67178 6.68194 7.63338 6.78294 7.50282C6.7791 7.5553 6.72086 8.08343 7.03343 8.43876C7.09167 8.37079 7.23926 8.14551 7.23926 8.14551L7.2431 8.0737C7.2431 8.0737 7.25666 7.8232 7.33833 7.59408C7.41999 7.36496 7.5791 7.196 7.5791 7.196L8.40994 6.00957L8.28566 5.59216L8.28591 5.59229Z" fill="#E6C367"/>
<path fill-rule="evenodd" clip-rule="evenodd" d="M7.50922 7.33437C7.47118 7.36125 7.42927 7.38218 7.38493 7.39645C7.37136 7.34794 7.3519 7.1809 7.46646 7.01782C7.60048 6.8216 7.8936 6.56726 7.97514 6.36502C8.02762 6.23485 8.00432 5.9087 8.47037 5.49117C8.93642 5.07363 9.11882 4.93002 9.11882 4.93002L9.87222 4.55139L10.7984 4.91645L10.3383 6.71997L9.98102 7.56477L8.56022 7.29686L7.50909 7.33437H7.50922Z" fill="#DCBA5A"/>
<path fill-rule="evenodd" clip-rule="evenodd" d="M8.05127 6.84468L8.22804 6.62337V6.46606C8.22804 6.46606 8.42413 6.41358 8.63572 6.19802C8.8473 5.98247 9.14055 5.5689 9.39885 5.59412C9.65716 5.6233 9.68237 6.15527 9.6921 6.3049C9.70183 6.45454 9.73485 6.79412 9.78721 6.97678C9.84545 7.1593 9.15809 7.8505 9.15809 7.8505L8.69127 8.20583L8.05127 6.84468Z" fill="#E9CE77"/>
<path fill-rule="evenodd" clip-rule="evenodd" d="M8.59863 8.68741C8.59863 8.68741 8.74238 8.46213 8.63703 8.41362C8.69911 8.27384 8.81367 8.12626 8.81367 8.12626C8.81367 8.12626 8.89521 7.9244 9.15927 7.67582C9.42334 7.42725 9.58654 7.26213 9.62929 7.09522C9.65564 6.98644 9.66998 6.87509 9.67204 6.76318C9.70059 6.78651 9.73113 6.80728 9.7633 6.82526C9.80606 6.84472 10.0079 7.01163 9.97886 7.34763C9.9498 7.68363 9.82526 7.82341 9.82526 7.82341C9.82526 7.82341 9.70494 7.94373 9.61956 8.00594C9.52817 8.06802 9.49527 8.13982 9.3418 8.14571C9.35757 8.13317 9.37531 8.12331 9.39428 8.11653C9.39428 8.11653 9.23505 8.0972 9.14955 8.17477C9.06404 8.25234 8.88228 8.49131 8.79102 8.56325C8.69975 8.62149 8.59902 8.68754 8.59902 8.68754L8.59863 8.68741Z" fill="#CDAE50"/>
<path fill-rule="evenodd" clip-rule="evenodd" d="M15.0549 4.91064C14.8255 4.82703 14.5844 4.77987 14.3404 4.77086C13.9326 4.75729 13.3365 4.78059 12.752 4.78443C12.1229 4.78827 11.552 4.56888 10.7598 4.53009C10.6298 4.4524 10.299 4.11256 9.2666 4.83294C9.32868 4.8291 10.0162 4.67371 10.2549 4.97285C10.4957 5.26993 10.4277 5.77477 10.3948 5.89509C10.3326 6.16312 10.1306 6.55339 10.0492 6.82718C9.96779 7.10097 9.98699 7.24485 9.92875 7.43685C9.87051 7.62885 9.74238 7.72421 9.81803 7.94552C9.91902 7.88344 9.97163 7.88344 10.1403 7.50481C10.309 7.12619 10.2743 6.85624 10.554 6.53585C10.8278 6.21355 11.2836 5.77272 11.4569 5.662C11.6302 5.55128 13.0064 4.83678 14.4473 5.51838C14.7948 5.48152 15.055 4.91051 15.055 4.91051L15.0549 4.91064Z" fill="#D2A83E"/>
<path fill-rule="evenodd" clip-rule="evenodd" d="M9.84693 4.64642C9.8455 4.63183 9.84228 4.61747 9.83733 4.60367C9.82385 4.57527 9.80616 4.54908 9.78485 4.52597C9.78485 4.52597 9.44309 4.46389 9.27029 4.48322C8.96731 4.51625 8.69352 4.89103 8.56539 5.08329C8.43726 5.27554 8.27803 5.5725 8.10523 5.72597C8.10712 5.71102 8.10368 5.69588 8.0955 5.68322C8.0955 5.68322 8.10523 5.69679 8.0859 5.71625C8.06658 5.7357 8.06645 5.7453 8.07618 5.75465L8.10536 5.7837C8.11496 5.7837 8.38299 5.66325 8.74805 5.3229C9.1364 4.96757 9.43349 4.7853 9.58888 4.72284C9.67175 4.68762 9.75837 4.66198 9.84706 4.64642V4.64642H9.84693Z" fill="#C29637"/>
<path fill-rule="evenodd" clip-rule="evenodd" d="M16.476 3.1864C16.476 3.1864 16.4138 3.26397 16.3361 3.34947C16.1633 3.532 15.938 3.7377 15.7458 3.94941C15.5634 4.15139 15.3576 4.30871 15.1264 4.57277C14.8952 4.83683 14.6272 5.12995 14.5594 5.21546C14.4973 5.30096 14.4488 5.44074 14.4488 5.51255C14.4157 5.48925 14.377 5.46403 14.377 5.46403C14.3933 5.49452 14.4128 5.52318 14.4352 5.54954C14.4837 5.61751 14.5594 5.70314 14.5983 5.75536C14.646 5.82184 14.6803 5.89703 14.6991 5.97667C14.7224 5.98051 14.8719 6.0097 15.0584 5.70288C15.2449 5.39607 15.4894 5.06019 15.4894 5.06019L15.8778 4.48343L16.1225 3.99421L16.4297 3.44663L16.4764 3.1864H16.476Z" fill="#AC8132"/>
<path fill-rule="evenodd" clip-rule="evenodd" d="M16.8742 2.79419C16.8742 2.79419 16.6392 2.98619 16.5479 3.10139C16.4567 3.21659 16.2407 3.51893 16.2407 3.51893L16.3184 3.5092L16.7127 3.15976L16.8663 2.88597L16.8741 2.7947L16.8742 2.79419Z" fill="#A88F33"/>
<path fill-rule="evenodd" clip-rule="evenodd" d="M16.8023 18.2253C16.8023 18.2253 16.7985 18.066 16.8878 17.9709C16.9791 17.8757 17.2101 17.7359 17.4354 17.2116C17.6607 16.6873 17.6858 16.5689 17.6858 16.5689C17.6858 16.5689 17.2819 16.9145 17.033 16.9961C17.0912 16.8756 17.1242 16.7903 17.1534 16.728C17.1204 16.699 16.9806 16.666 16.967 16.6505C17.0446 16.5728 17.0873 16.3824 17.2447 16.2562C17.4466 16.1026 17.8155 15.8387 18.1023 15.6034C18.389 15.3682 18.9527 14.821 19.0246 14.6617C19.0674 14.7238 19.077 14.7626 19.077 14.7626C19.077 14.7626 18.7936 15.1316 18.646 15.3665C18.5158 15.5685 18.5256 15.6831 18.5256 15.6831L18.7936 15.5679C18.7936 15.5679 18.8712 15.8552 18.5198 16.2922C18.6734 16.234 18.7354 16.2689 18.8226 16.2203C18.6789 16.3117 18.4809 16.436 18.2945 16.7776C18.112 17.1193 17.8634 17.5174 17.4441 17.7659C17.0363 18.028 16.8013 18.2241 16.8013 18.2241L16.8023 18.2253Z" fill="#A67A2E"/>
<path fill-rule="evenodd" clip-rule="evenodd" d="M15.7502 5.11266C15.7502 5.11266 15.5909 5.44456 15.5676 5.70287C15.5638 5.76508 15.5482 5.81359 15.5482 5.8854C15.5443 6.11644 15.5617 6.37474 15.5098 6.49506C15.4903 6.44655 15.4806 6.41352 15.4611 6.3942C15.4321 6.47573 15.3796 6.73007 15.3368 6.82517C15.3175 6.76309 15.2748 6.54754 15.2787 6.2932C15.2827 6.03887 15.2883 5.99023 15.2883 5.93788C15.2787 6.01544 15.2262 6.1204 15.2068 6.18248C15.1777 6.13013 15.1447 6.06216 15.1058 6.00584C15.0825 6.04424 15.0534 6.10095 15.0282 6.13013C15.0243 6.10684 15.0147 6.04463 15.0088 5.95733C15.0049 5.85634 14.999 5.72629 15.0049 5.69903C15.0145 5.64668 15.0962 5.44085 15.269 5.25244C15.4748 5.02716 15.6865 4.59426 15.7486 4.46024C15.8107 4.32623 16.0748 3.76904 16.0748 3.76904H16.2767L15.9835 4.43695C15.9835 4.43695 15.8069 4.802 15.7156 4.93615C15.6243 5.07029 15.4321 5.45467 15.3466 5.60418C15.4086 5.52264 15.4611 5.47989 15.5233 5.40219C15.5835 5.34779 15.7504 5.11292 15.7504 5.11292L15.7502 5.11266Z" fill="#8C6228"/>
<path fill-rule="evenodd" clip-rule="evenodd" d="M16.8781 2.76892C16.8451 2.87047 16.7929 2.96475 16.7245 3.04668C16.604 3.19042 16.3457 3.38255 16.2196 3.5359C16.1044 3.6854 15.874 4.09321 15.9787 4.57666C16.0171 4.47183 16.0895 4.26409 16.2817 4.02908C16.474 3.79407 16.6798 3.52425 16.7809 3.31458C16.8818 3.10287 16.8954 2.93596 16.8954 2.93596L16.9338 2.88745L16.9105 2.77673L16.8774 2.76892H16.8781Z" fill="#CBA94C"/>
<path fill-rule="evenodd" clip-rule="evenodd" d="M20.81 15.6485C20.81 15.6485 20.7323 15.4369 20.709 15.2446C20.6857 15.0524 20.7474 15.0142 20.676 14.7942C20.6332 14.6602 20.5556 14.679 20.5362 14.6602C20.5167 14.6414 20.5032 14.4389 20.507 14.3282C20.5108 14.2174 20.5032 14.0738 20.4837 14.0116C20.4546 13.9883 20.4352 13.9689 20.3924 13.8252C20.3439 13.6815 20.3206 13.6097 20.2973 13.5671C20.274 13.5244 20.2059 13.4855 20.2059 13.4428C20.2059 13.3573 20.2836 13.3127 20.2836 13.2892C20.2798 13.2407 20.2216 13.2796 20.2059 13.2659C20.1866 13.2426 20.2546 13.1028 20.2294 13.0834C20.2196 13.0738 20.1517 13.1553 20.1341 13.132C20.1147 13.1086 20.0914 12.8775 20.0564 12.7242C20.0235 12.5747 19.9885 12.466 19.9846 12.4213C19.9808 12.3786 19.7166 11.6252 19.6526 11.4427C19.601 11.2884 19.5576 11.1316 19.5226 10.9728C19.5031 10.8815 19.4895 10.695 19.4798 10.7145C19.4701 10.7339 19.476 10.829 19.4603 10.8252C19.4468 10.8212 19.3983 10.4893 19.3828 10.4368C19.3692 10.3844 19.2875 10.2064 19.2676 10.0777C19.2481 9.94749 19.2055 9.60765 19.1763 9.37661C19.1471 9.14557 19.1336 9.05046 19.1336 8.99261C19.1383 8.8511 19.1305 8.70944 19.1103 8.56931C19.0719 8.32458 18.9951 8.02749 18.9277 7.85482C18.7977 7.52854 18.452 6.6936 18.3901 6.48586C18.3901 6.43338 18.4581 6.46256 18.4581 6.46256C18.4581 6.46256 18.6269 6.88586 18.7512 7.212C18.8717 7.53827 18.9862 7.82563 19.0154 7.85482C19.0387 7.88387 19.2212 8.20426 19.3028 8.72854C19.3843 9.25283 19.4134 9.73629 19.462 10.0586C19.4853 10.2122 19.5048 10.3751 19.5533 10.5382C19.6056 10.715 19.6872 10.8975 19.794 11.1771C19.8853 11.4121 19.9533 11.6082 19.9901 11.7771C20.0329 11.9927 20.0329 12.1557 20.0581 12.2626C20.0815 12.3539 20.1163 12.5363 20.198 12.8002C20.2797 13.0642 20.3999 13.4041 20.4814 13.6157C20.6408 14.039 20.7118 14.3924 20.7359 14.5808C20.7571 14.775 20.829 15.4469 20.8096 15.6487L20.81 15.6485Z" fill="#A88F33"/>
<path fill-rule="evenodd" clip-rule="evenodd" d="M16.8878 2.74564L16.8781 2.76894C16.8781 2.76894 16.9071 2.77866 16.9014 2.81758C16.9018 2.87081 16.8985 2.92402 16.8917 2.97681C16.8821 3.04478 16.8626 3.09713 16.8588 3.13988C16.8588 3.23114 16.8723 3.33598 16.7436 3.5962C16.7052 3.66801 16.6815 3.73009 16.662 3.77284C16.6135 3.87767 16.6038 3.89329 16.561 3.9418C16.629 3.9034 16.8737 3.7498 16.9979 3.77284C16.9125 3.82135 16.7823 3.91658 16.7008 4.04087C16.7203 4.04471 16.8018 4.06033 16.9312 4.04087C17.1468 4.00785 17.3875 3.93015 17.5991 3.94564C17.8303 3.95921 17.739 3.66801 17.739 3.66801L17.4723 3.08164L16.9674 2.72644L16.8878 2.74577V2.74564Z" fill="#BE9C44"/>
<path fill-rule="evenodd" clip-rule="evenodd" d="M18.2042 7.13786C18.2042 7.13786 17.9789 6.91258 17.8877 6.13946C17.7964 5.36276 17.8159 4.21946 17.8159 4.21946L17.6333 3.77287C17.6333 3.77287 17.5949 3.47578 17.4993 3.36519C17.4037 3.2546 17.2159 3.06811 17.1304 2.97684C17.0449 2.88558 16.9479 2.76129 16.8896 2.74183C16.9187 2.69332 17.0489 2.41953 17.5478 2.41569C18.0468 2.41185 18.2006 2.68948 18.2527 2.79047C18.3048 2.89146 18.5401 3.32807 18.6274 4.16007C18.7089 4.99105 18.7129 5.05326 18.6993 5.34062C18.6896 5.49985 18.6371 5.86874 18.5457 6.26286C18.4623 6.59694 18.371 6.9698 18.204 7.13863L18.2042 7.13786Z" fill="#A17C34"/>
<path fill-rule="evenodd" clip-rule="evenodd" d="M17.4979 7.80004C17.573 7.80545 17.648 7.78853 17.7134 7.7514C17.7853 7.74756 18.0455 7.78058 18.2454 7.52625C18.259 7.58436 18.2941 7.7418 18.2027 7.88157C18.2513 7.83293 18.3231 7.81361 18.3328 7.80004C18.3367 7.87185 18.4046 8.09316 18.1173 8.63101C18.1949 8.54564 18.2861 8.54948 18.3677 8.53975C18.3716 8.64074 18.4259 8.98045 18.2823 9.16311C18.1872 9.2874 18.0318 9.24849 18.0318 9.24849C18.0341 9.22135 18.0341 9.19408 18.0318 9.16695C18.0279 9.11447 18.0085 9.06212 18.0222 9.02717C17.9471 8.99288 17.8787 8.9455 17.8202 8.88727C17.6512 8.72804 17.4318 8.45629 17.4164 8.25431C17.3969 8.02903 17.5989 7.98052 17.5989 7.98052C17.582 7.96538 17.5675 7.94767 17.5561 7.92804C17.5464 7.89514 17.5367 7.84266 17.4979 7.80004V7.80004Z" fill="#8C6228"/>
<path fill-rule="evenodd" clip-rule="evenodd" d="M16.0001 5.35732C16.0001 5.35732 15.9903 5.34376 15.938 5.40584C15.9477 5.34376 15.9574 5.28539 15.9613 5.22907C15.9861 5.17693 16.0181 5.12857 16.0565 5.08545C16.0273 5.14356 16.0079 5.19604 16.0079 5.19604C16.0079 5.19604 16.0798 5.06203 16.1846 4.98049C16.2565 4.92225 16.3477 4.89512 16.3865 4.84072C16.4293 4.78248 16.4195 4.77275 16.4293 4.76302C16.4293 4.76302 16.5245 4.70094 16.6701 4.51828C16.6895 4.49499 16.7187 4.46977 16.7381 4.44648C16.771 4.43291 16.8487 4.39796 16.94 4.35124C17.0352 4.29889 17.142 4.22708 17.208 4.19764C17.3381 4.1394 17.476 4.14529 17.54 4.0539C17.5885 4.04033 17.6409 3.89467 17.6313 3.77051C17.7031 3.79956 18.072 4.02868 18.1983 4.52968C18.2896 4.885 18.1264 5.43259 18.0584 5.69678C17.9905 5.96097 17.9809 6.15694 17.8856 6.27726C17.7652 6.43662 17.377 6.66126 17.2817 6.77249C17.2002 6.86376 16.9556 7.0948 16.9652 7.26171C16.9749 7.386 17.1283 7.45371 17.1614 7.47726C17.1946 7.50081 17.1943 7.52974 17.2565 7.51566C17.3187 7.50158 17.3419 7.47291 17.3672 7.47291C17.3963 7.47675 17.3963 7.48264 17.4099 7.48264C17.4197 7.48234 17.4295 7.48101 17.439 7.47867C17.439 7.47867 17.4293 7.65544 17.0157 7.70907C16.9866 7.71304 16.9575 7.72264 16.9205 7.72852C16.9692 7.70523 16.9982 7.70523 17.0507 7.63342C16.9925 7.62369 16.8254 7.61396 16.7827 7.6004C16.7962 7.5771 16.8409 7.51489 16.8778 7.48584C16.9108 7.45678 16.8739 7.44744 16.8449 7.46254C16.7948 7.49658 16.7468 7.5335 16.7011 7.57313C16.6526 7.61588 16.6099 7.67412 16.5322 7.72673C16.5089 7.64904 16.5127 7.50145 16.6041 7.3947C16.5807 7.39854 16.536 7.46651 16.4934 7.45294C16.4857 7.38211 16.4903 7.31049 16.5069 7.24123C16.5302 7.1538 16.6565 7.00046 16.6565 7.00046L17.2661 5.91105L17.3962 5.08584L16.0001 5.35707V5.35732Z" fill="#92723A"/>
<path fill-rule="evenodd" clip-rule="evenodd" d="M15.9673 5.40385C15.9673 5.40385 15.9343 5.42714 16.0003 5.47181C15.9906 5.48538 15.9673 5.53389 15.9381 5.56692C15.9052 5.60532 15.8701 5.62913 15.8566 5.66215C15.8275 5.73012 15.8042 5.77671 15.8042 5.80589C15.8042 5.83508 15.7945 6.02145 15.713 6.14177C15.6838 6.18452 15.6508 6.25633 15.6275 6.30484C15.5789 6.39021 15.5362 6.45844 15.5265 6.49684C15.5071 6.56481 15.4936 6.75117 15.4936 6.75117C15.4936 6.75117 15.5363 6.69869 15.5518 6.67937C15.5284 6.72788 15.5032 6.78023 15.4663 6.81914C15.4896 6.79969 15.5576 6.75117 15.6721 6.65018C15.8314 6.51629 16.0799 6.29101 16.3829 6.11258C16.2915 6.14561 16.214 6.14561 16.1519 6.15533C16.2004 6.10682 16.6373 5.59418 16.8664 5.54567C16.8803 5.52803 16.8872 5.50588 16.8858 5.48346L16.6896 5.46413L16.2915 5.54951L16.2334 5.24231L15.9673 5.40346V5.40385Z" fill="#B18E3E"/>
<path fill-rule="evenodd" clip-rule="evenodd" d="M16.6003 7.15155C16.6003 7.15155 16.5478 7.2039 16.4993 7.33407C16.462 7.29507 16.4299 7.2513 16.4041 7.2039C16.3323 7.08358 16.2217 6.9301 15.9634 7.01753C15.9595 6.93599 15.9536 6.89324 15.9634 6.835C16.0061 6.8254 16.1362 6.72057 16.2662 6.5671C16.3576 6.46226 16.443 6.34182 16.5012 6.18847C16.5396 6.15929 16.6061 6.11078 16.6932 6.05446C16.8175 5.96908 16.967 5.85247 16.9903 5.72242C16.9321 5.74572 16.8078 5.80396 16.6213 5.79436C16.6932 5.76134 16.8038 5.72639 16.7903 5.58265C16.8194 5.56319 16.8427 5.54962 16.8427 5.54962C16.8208 5.54232 16.7978 5.53903 16.7748 5.5399C16.7708 5.52633 16.765 5.507 16.732 5.5166C16.699 5.5262 16.6936 5.52633 16.6893 5.5399C16.6757 5.54386 16.631 5.5399 16.598 5.56332C16.565 5.58675 16.4737 5.66419 16.4388 5.67775C16.4523 5.65446 16.4717 5.61964 16.4717 5.61964C16.4717 5.61964 16.3766 5.62924 16.3086 5.65804C16.1843 5.70079 16.0407 5.77849 15.895 5.85414C15.9086 5.83084 15.9145 5.81574 15.9241 5.81139C15.9337 5.80703 15.9571 5.80179 15.9571 5.79782C15.9571 5.79385 15.9475 5.75942 15.9533 5.74546C15.9968 5.65321 16.0482 5.56486 16.1069 5.4814C16.1748 5.39001 16.1884 5.25996 16.1884 5.25996L16.4855 5.11046L17.3204 4.91846L17.8623 4.95148L17.7943 5.32626L17.4743 5.9806L17.2005 6.5767L16.8878 6.94188L16.6004 7.15155H16.6003Z" fill="#543E26"/>
<path fill-rule="evenodd" clip-rule="evenodd" d="M17.954 5.52965C17.954 5.52965 17.6278 5.93349 17.5365 5.9957C17.5947 5.87141 17.954 5.13157 18.0841 4.92575C18.055 4.90245 18.0161 4.90245 18.1074 4.54175C18.0298 4.72415 18.0026 4.81938 17.9386 4.86789C17.8746 4.9164 17.8666 4.90092 17.8234 4.90092C17.8315 4.88614 17.8349 4.86918 17.833 4.8524C17.833 4.8524 17.5592 4.81938 17.3722 4.81938C17.1851 4.81938 16.815 4.92037 16.609 5.00191C16.4459 5.06988 16.3547 5.06988 16.2964 5.1125C16.2382 5.16101 16.2052 5.21349 16.176 5.22706C16.1527 5.24063 16.0421 5.27557 16.0168 5.31244C15.9935 5.35084 15.9547 5.39397 15.9547 5.4037C15.9547 5.41343 15.945 5.42712 15.9741 5.41727C15.9837 5.41343 16.0557 5.37452 16.1372 5.326C16.2478 5.26392 16.3818 5.19212 16.479 5.14936C16.7566 5.03864 16.844 5.0581 16.9682 5.0348C17.0982 5.01151 17.2847 4.95711 17.4089 4.95711C17.5332 4.95327 17.7682 4.95711 17.8226 4.96684C17.7993 4.98629 17.7798 5.00959 17.7896 5.09112C17.7896 5.11442 17.7701 5.13964 17.7512 5.19596C17.693 5.35519 17.5823 5.61925 17.5208 5.75327C17.4354 5.93567 17.3384 6.08914 17.2904 6.18424C17.2424 6.27935 17.1368 6.52984 17.0322 6.66386C16.9276 6.79788 16.873 6.87941 16.8402 6.9086C16.8074 6.93778 16.5722 7.11045 16.5897 7.17266C16.6324 7.15909 16.9024 7.05746 17.0984 6.83679C17.2943 6.61612 17.3334 6.48146 17.4867 6.36101C17.6401 6.24056 17.7605 6.03871 17.8323 5.8718C17.8925 5.7164 17.8789 5.66789 17.9546 5.53004L17.954 5.52965Z" fill="#806031"/>
<path fill-rule="evenodd" clip-rule="evenodd" d="M10.9228 8.54374C10.9228 8.54374 10.8801 8.72038 10.7829 8.8078C10.6878 8.89331 10.5188 8.96704 10.4995 9.11078C10.4762 9.2544 10.6685 9.32633 10.6685 9.32633C10.6685 9.32633 10.5635 9.49913 10.5635 9.62918C10.5635 9.7632 10.5597 9.78841 10.5732 9.91654C10.5578 9.92644 10.5448 9.93954 10.5348 9.95494C10.5348 9.95494 10.5444 10.0792 10.6397 10.1568C10.7349 10.2344 10.8163 10.2811 10.8648 10.2616C10.8722 10.2775 10.8787 10.2937 10.8843 10.3103C10.8843 10.3103 10.9562 10.1277 11.0047 9.96851C11.0532 9.80543 11.096 9.8286 11.1153 9.60921C11.1347 9.38982 11.3457 9.01312 11.3457 9.01312L11.4897 8.6912L11.2548 8.50867L10.9228 8.54361V8.54374Z" fill="#B6903C"/>
<path fill-rule="evenodd" clip-rule="evenodd" d="M11.3596 8.86011C11.3112 8.90983 11.2665 8.96305 11.2259 9.01934C11.1638 9.10484 11.1153 9.18241 11.024 9.21556C10.9328 9.24871 10.8745 9.24846 10.8803 9.33985C10.886 9.43124 10.9715 9.4699 11.0201 9.51649C11.0725 9.565 11.1153 9.64654 11.092 9.73793C11.121 9.72436 11.1735 9.70875 11.222 9.60392C11.2705 9.49908 11.6099 8.86024 11.6099 8.86024H11.3596V8.86011Z" fill="#685026"/>
<path fill-rule="evenodd" clip-rule="evenodd" d="M12.6977 7.38639C12.6977 7.38639 12.7268 7.30882 12.6977 7.2525C12.6685 7.19426 12.4919 7.1748 12.4045 7.10875C12.3132 7.04079 12.2025 6.99356 12.1112 7.02338C12.1248 6.99036 12.1792 6.91842 12.1345 6.90293C12.0918 6.88936 11.9327 6.96117 11.8899 6.99419C11.8472 7.02722 11.75 7.066 11.7307 7.08943C11.7114 7.11285 11.6782 7.1574 11.6588 7.13794C11.6393 7.12437 11.6297 7.08943 11.5967 7.10875C11.5636 7.12808 11.4047 7.25826 11.3754 7.33403C11.346 7.40981 11.2801 7.57877 11.0821 7.7709C10.8841 7.96303 10.7986 8.08744 10.8568 8.15925C10.9151 8.23106 10.9423 8.17871 10.9521 8.24079C10.9595 8.30173 10.9563 8.36351 10.9423 8.42332C10.919 8.52431 10.8803 8.61941 10.9326 8.63887C11.0666 8.68162 11.1968 8.60047 11.2259 8.6253C11.2841 8.67765 11.1928 8.86607 11.3307 8.90293C11.4706 8.94133 11.6084 8.86991 11.6084 8.86991L12.1171 8.59612L12.6065 8.33794L12.8568 7.84271L12.7226 7.42914L12.697 7.38639H12.6977Z" fill="#D4B968"/>
<path fill-rule="evenodd" clip-rule="evenodd" d="M12.2179 8.56891C12.2179 8.56891 12.1324 8.43886 12.2373 8.32417C12.3423 8.20948 12.4917 8.1611 12.5499 8.08929C12.5388 8.07562 12.524 8.06551 12.5072 8.06024C12.5458 7.99106 12.6048 7.93543 12.6761 7.90088C12.6471 7.87182 12.6082 7.84852 12.5655 7.84852C12.4703 7.84852 12.4119 7.90676 12.3246 7.90676C12.2393 7.90676 12.2295 7.86401 12.2295 7.86401C12.2295 7.86401 12.3733 7.85044 12.3596 7.78632C12.346 7.71835 12.3212 7.71835 12.3212 7.71835C12.3212 7.71835 12.5988 7.60315 12.6473 7.54171C12.6958 7.48027 12.6901 7.40769 12.6998 7.37864C12.7327 7.37864 12.925 7.27764 13.0027 7.32039C13.0804 7.36315 13.026 7.47963 13.026 7.47963C13.026 7.47963 13.2611 7.30286 13.3809 7.12955C13.4857 7.13928 13.5345 7.05774 13.6113 7.05774C13.7065 7.05774 13.856 7.18779 13.8851 7.46542C13.9045 7.62465 13.9336 7.71592 13.9045 7.99752C13.891 8.15675 13.8948 8.49671 13.9429 8.66542C13.9758 8.79943 14.0535 8.78587 14.0535 8.78587C14.0416 8.8267 14.018 8.86315 13.9856 8.8907C13.9331 8.93921 13.9273 9.06747 13.9331 9.11598C13.9408 9.15145 13.9506 9.18645 13.9623 9.22081C13.9623 9.22081 13.9002 9.29262 13.8846 9.34126C13.871 9.38977 13.807 9.42279 13.7603 9.42279C13.7136 9.42279 13.737 9.41883 13.6749 9.42279C13.6128 9.42676 13.5934 9.43636 13.5545 9.42279C13.5156 9.40923 13.4865 9.39361 13.5021 9.26919C13.5157 9.14491 13.0225 8.85563 13.0225 8.85563L12.2161 8.56827L12.2179 8.56891Z" fill="#CCA849"/>
<path fill-rule="evenodd" clip-rule="evenodd" d="M11.2917 9.79612C11.2917 9.79612 11.4683 10.0311 12.1946 10.0311C12.5402 10.0311 12.6606 9.99811 12.7322 9.97865C12.8099 9.95919 13.1011 9.84476 13.3943 9.49903C13.6584 9.18646 13.6001 9.05833 13.6001 9.05833L13.4465 9.03503L12.9473 9.103L11.4702 9.73212L11.291 9.79612H11.2917Z" fill="#585136"/>
<path fill-rule="evenodd" clip-rule="evenodd" d="M11.8332 9.85433C11.8332 9.85433 11.2041 9.99423 11.2041 9.59615C11.2041 9.2078 11.5925 8.79999 11.6896 8.72818C11.7906 8.65625 12.0314 8.57458 12.0314 8.57458H12.612L12.7226 8.86783L12.6741 9.50079L11.8332 9.8542V9.85433Z" fill="#252211"/>
<path fill-rule="evenodd" clip-rule="evenodd" d="M12.4138 8.69323C12.4138 8.69323 12.2934 8.58251 12.0196 8.73163C11.7459 8.88075 11.5244 9.19243 11.5108 9.47543C11.4973 9.7258 11.7167 9.9123 12.0584 9.92203C12.3128 9.93163 12.4662 9.90257 12.5439 9.88363C12.5245 9.86033 12.4235 9.73412 12.4235 9.73412L12.4139 8.69335L12.4138 8.69323Z" fill="#C3B378"/>
<path fill-rule="evenodd" clip-rule="evenodd" d="M12.2956 8.75521C12.2956 8.75521 12.2666 8.73192 12.1804 8.77851C12.1086 8.81691 12.0038 8.91841 11.9222 8.99022C11.8698 9.03297 11.8367 9.0523 11.807 9.08533C11.6866 9.22907 11.5856 9.46408 11.644 9.58056C11.7023 9.69704 11.8945 9.83105 12.3838 9.73979L12.2942 8.75534L12.2956 8.75521Z" fill="#E6D89C"/>
<path fill-rule="evenodd" clip-rule="evenodd" d="M12.1366 8.99611C12.1366 8.99611 12.0589 9.11656 12.0589 9.30882C12.0589 9.50491 12.1696 9.81749 12.5774 9.84078C12.89 9.86024 13.0996 9.39035 13.3268 9.20782C13.4996 9.06805 13.6045 9.06408 13.6045 9.06408C13.6045 9.06408 13.4278 8.87208 12.956 8.62338C12.49 8.37288 11.9676 8.33986 11.6841 8.72437C11.8181 8.71464 12.2511 8.60392 12.2511 8.60392L12.4628 8.67189L12.1366 8.99624V8.99611Z" fill="#252211"/>
<path fill-rule="evenodd" clip-rule="evenodd" d="M12.7458 9.2504C12.7322 9.22134 12.7225 9.18243 12.7788 9.17283C12.8352 9.16323 12.8604 9.16886 12.8798 9.21123C12.8993 9.2536 12.9182 9.28892 12.8894 9.30646C12.8604 9.32195 12.7846 9.30646 12.7457 9.25014L12.7458 9.2504ZM12.6545 8.9766C12.6545 8.9766 12.6351 8.99017 12.6448 8.96304C12.6487 8.93014 12.674 8.87177 12.7361 8.88547C12.7982 8.89916 12.7847 8.967 12.7745 8.98646C12.7642 9.00592 12.7124 9.03881 12.6735 9.02486C12.6686 9.0236 12.664 9.02119 12.6602 9.01784C12.6563 9.01448 12.6533 9.01027 12.6515 9.00554C12.6496 9.00081 12.6488 8.99571 12.6492 8.99064C12.6497 8.98556 12.6513 8.98067 12.654 8.97635L12.6545 8.9766Z" fill="#6F674D"/>
<path fill-rule="evenodd" clip-rule="evenodd" d="M7.39844 9.10083C7.39844 9.10083 7.55204 9.21603 7.73047 9.21155C7.90711 9.20759 8.13431 9.02518 8.23914 8.90858C8.30122 8.84061 8.35434 8.7688 8.41194 8.71248C8.46058 8.66397 8.49348 8.64067 8.51677 8.60765C8.5498 8.56925 8.58474 8.49706 8.60228 8.47363C8.55953 8.50666 8.49745 8.56502 8.43332 8.60381C8.37124 8.64221 8.23722 8.7144 8.18282 8.73386C8.13047 8.75331 7.58673 9.04106 7.58673 9.04106L7.39844 9.10083Z" fill="#AC924C"/>
<path fill-rule="evenodd" clip-rule="evenodd" d="M7.6333 7.66601C7.6333 7.66601 7.71868 7.60777 7.8838 7.57078C8.04303 7.53238 8.36341 7.50281 8.36341 7.50281L8.62748 7.61801L8.73231 8.01609L8.54031 8.42978L8.2957 8.58338L8.01794 8.13679L7.63394 7.66678L7.6333 7.66601Z" fill="#9F8E57"/>
<path fill-rule="evenodd" clip-rule="evenodd" d="M7.28768 8.02138L7.19629 8.0896C7.19629 8.0896 7.21971 8.04685 7.23904 7.9168C7.25837 7.78676 7.35949 7.47021 7.50707 7.28768C7.65466 7.10516 7.65082 7.11488 7.65082 7.11488C7.63724 7.1124 7.62328 7.11284 7.60989 7.11617C7.59649 7.1195 7.58395 7.12565 7.57312 7.13421C7.59258 7.0912 7.71687 6.9376 7.84115 6.8608C7.96544 6.784 8.01395 6.75981 8.144 6.8224C8.27405 6.885 8.30707 6.91751 8.4023 6.91367C8.49754 6.90983 8.57894 6.80884 8.57894 6.80884C8.57894 6.80884 8.5984 6.87092 8.52659 7.01466C8.45478 7.1584 8.17126 7.45152 8.17126 7.45152L7.58093 7.85536L7.28768 8.02176V8.02138Z" fill="#EAC970"/>
<path fill-rule="evenodd" clip-rule="evenodd" d="M7.72463 7.61749C7.72463 7.61749 8.1519 7.67573 8.28195 7.55541C8.28579 7.56898 8.3014 7.56898 8.3014 7.5787C8.30036 7.58604 8.29694 7.59282 8.29167 7.59803C8.30582 7.59577 8.3201 7.59449 8.33443 7.59419C8.35152 7.59928 8.36912 7.60254 8.38691 7.60392C8.40123 7.60361 8.41552 7.60228 8.42966 7.59995C8.42831 7.6096 8.42503 7.61888 8.42001 7.62724C8.415 7.6356 8.40835 7.64286 8.40047 7.64859C8.41993 7.64859 8.43887 7.65243 8.43887 7.66792C8.43887 7.68341 8.44271 7.73013 8.41942 7.73986C8.40012 7.74519 8.37957 7.74379 8.36118 7.73589C8.36272 7.77265 8.3727 7.80857 8.39036 7.84085C8.42876 7.91266 8.51068 7.99445 8.62076 7.9709C8.62076 7.9709 8.67887 8.11067 8.43427 8.42133C8.40137 8.46408 8.3663 8.52232 8.32367 8.57083C8.30683 8.60754 8.29396 8.64595 8.28527 8.68539C8.28527 8.68539 8.69897 8.52616 8.81737 8.16302C8.93782 7.79797 8.96111 7.4388 8.93782 7.10293C8.93385 7.0077 8.91836 6.93986 8.89507 6.89122C8.83683 6.77077 8.67363 6.79022 8.60771 6.85819C8.51247 6.95342 8.35324 7.19022 8.13193 7.3533C7.90665 7.51637 7.89705 7.5453 7.72412 7.61749H7.72463Z" fill="#D7BC6B"/>
<path fill-rule="evenodd" clip-rule="evenodd" d="M7.21202 8.1418C7.21202 8.1418 7.13048 8.19031 7.08773 8.3722C7.04498 8.55857 7.12613 8.78577 7.17311 8.85758C7.22009 8.92938 7.32671 9.12561 7.54789 9.13534C7.60264 9.13505 7.65678 9.12382 7.70712 9.10231C7.78434 9.06691 7.85676 9.02188 7.92268 8.9683C8.01791 8.89649 8.09548 8.83441 8.08575 8.82852C8.06245 8.81879 7.49938 8.35274 7.49938 8.35274L7.28767 8.11646L7.21189 8.14206L7.21202 8.1418Z" fill="#585136"/>
<path fill-rule="evenodd" clip-rule="evenodd" d="M7.74436 8.91461C7.74436 8.91461 7.85892 8.90501 7.92689 8.86225C7.99486 8.8195 7.52881 8.35742 7.52881 8.35742L7.56183 8.85662L7.74436 8.91461Z" fill="#453A25"/>
<path fill-rule="evenodd" clip-rule="evenodd" d="M7.24913 8.10679C7.24913 8.10679 7.19089 8.21751 7.19089 8.24669C7.18116 8.3418 7.21034 8.6408 7.23364 8.73591C7.25694 8.8369 7.38314 8.99024 7.54634 8.99024C7.64721 8.99024 7.78711 8.92816 7.78711 8.91268C7.78711 8.89322 7.64337 8.87428 7.60458 8.80196C7.58129 8.76356 7.57156 8.66807 7.56618 8.57156C7.56234 8.50948 7.56234 8.44151 7.58564 8.41796C7.63812 8.35972 7.64772 8.19268 7.64772 8.19268L7.83409 7.84644H7.58897L7.29572 8.02896L7.24913 8.10679Z" fill="#84754B"/>
<path fill-rule="evenodd" clip-rule="evenodd" d="M7.17725 8.21362C7.17725 8.21362 7.36925 7.95928 7.5423 7.90091C7.71536 7.84254 7.7928 7.87762 7.7928 7.87762L7.69181 8.13592L7.54806 8.29515L7.55779 8.37669C7.55779 8.37669 7.53437 8.59224 7.67811 8.74174C7.82185 8.89125 7.92861 8.88549 7.99081 8.88549C8.05302 8.88549 8.23158 8.83301 8.32285 8.61746C8.40438 8.4156 8.47235 8.15666 8.30928 7.89707C8.14992 7.63877 7.86845 7.62878 7.81405 7.62878C7.75965 7.62878 7.33251 7.65016 7.17725 8.21323V8.21362Z" fill="#252211"/>
<path fill-rule="evenodd" clip-rule="evenodd" d="M12.1072 9.07758C12.0354 9.04456 12.1034 8.8427 12.1752 8.78049C12.247 8.71829 12.3383 8.64661 12.4976 8.63675C12.5557 8.63291 12.6121 8.66977 12.6025 8.70869C12.5889 8.78049 12.4879 8.88149 12.3966 8.95329C12.2704 9.05237 12.1888 9.11445 12.1072 9.07758Z" fill="#F7F7E7"/>
<path fill-rule="evenodd" clip-rule="evenodd" d="M8.22341 7.97668C8.27589 7.97284 8.34386 8.01508 8.35742 8.07191C8.37099 8.13399 8.3244 8.25828 8.22341 8.25828C8.14187 8.25828 8.09912 8.15729 8.09912 8.12824C8.10004 8.10434 8.10671 8.08103 8.11858 8.06027C8.12242 8.05438 8.13215 7.98641 8.22341 7.97668V7.97668Z" fill="#F8F6DE"/>
<path fill-rule="evenodd" clip-rule="evenodd" d="M7.46628 8.02136C7.46628 8.02136 7.33226 8.08344 7.27018 8.21336C7.22582 8.3093 7.2124 8.41666 7.23178 8.52056C7.24151 8.56907 7.29002 8.68939 7.32304 8.73215C7.35607 8.7749 7.40074 8.80408 7.43376 8.80011C7.46679 8.79615 7.53463 8.70885 7.53463 8.6565C7.53463 8.60415 7.5386 8.38271 7.6026 8.26226C7.65892 8.14194 7.46666 8.02149 7.46666 8.02149L7.46628 8.02136Z" fill="#D4C38B"/>
<path fill-rule="evenodd" clip-rule="evenodd" d="M7.48562 8.01169C7.46232 8.02526 7.42354 8.04471 7.43314 8.06993C7.44287 8.09323 7.5244 8.10833 7.55359 8.16516C7.58661 8.2234 7.58661 8.28548 7.57688 8.31467C7.60225 8.30262 7.62526 8.28614 7.64485 8.26603C7.6876 8.21751 7.73995 8.15159 7.78463 8.15159C7.81381 8.15159 7.84287 8.16516 7.87013 8.16516C7.91288 8.16516 7.95551 8.15159 7.96139 8.10692C7.97099 8.04868 7.87986 7.9962 7.82738 8.00593C7.83711 7.96753 7.85067 7.91083 7.80792 7.87191C7.76517 7.833 7.63128 7.9011 7.6021 7.92055C7.57291 7.94001 7.48562 8.01182 7.48562 8.01182V8.01169Z" fill="#E2D59D"/>
<path fill-rule="evenodd" clip-rule="evenodd" d="M10.5712 12.0912L10.8585 12.0063L10.9401 12.0646C10.9401 12.0646 10.9982 12.1889 11.0896 12.2044C11.0604 12.2664 10.9846 12.3196 10.9886 12.3636C10.9925 12.4076 11.0313 12.4413 11.0313 12.4413C11.0313 12.4413 10.773 12.8684 11.2818 13.2989C11.1614 13.3474 11.008 13.4141 10.9265 13.4525C10.9846 13.4661 11.1089 13.4909 11.1614 13.538C11.2138 13.5851 11.2138 13.6001 11.2624 13.6293C11.3109 13.6584 11.3399 13.6972 11.3303 13.7146C11.2973 13.6952 11.1866 13.6371 11.1673 13.6913C11.1479 13.7456 10.6876 13.7244 10.6876 13.7244L9.91093 13.8739C9.91093 13.8739 9.93999 13.7962 9.85845 13.7244C9.76335 13.639 9.64687 13.7282 9.52258 13.6331C9.35951 13.5088 9.35362 13.3651 9.30127 13.3108C9.35362 13.2778 9.4605 13.2293 9.71484 13.1956C9.70511 13.1761 9.67209 13.1179 9.69154 13.0655C9.71484 12.9976 9.81186 12.9548 9.78281 12.8735C9.82556 12.8638 9.84488 12.8638 9.95176 12.7298C10.0528 12.5958 10.1148 12.5667 10.1925 12.557C10.2702 12.5473 10.3168 12.557 10.4606 12.423C10.5614 12.3279 10.5285 12.2463 10.5285 12.2463C10.5285 12.2463 10.5945 12.225 10.5713 12.091L10.5712 12.0912Z" fill="#CBAC5A"/>
<path fill-rule="evenodd" clip-rule="evenodd" d="M9.72262 12.1344C9.72646 12.115 9.74207 12.1052 9.84691 12.115C9.95174 12.1247 10.6158 12.0529 10.7964 12.0432C10.9789 12.0296 11.6216 12.0392 11.9343 12.1052C12.247 12.1713 12.5634 12.249 12.7168 12.2878C12.8704 12.3305 12.9188 12.3459 12.9129 12.3653C12.909 12.3848 12.8745 12.4037 12.8546 12.3984C12.8353 12.3945 12.3265 12.2391 12.1693 12.2064C12.0122 12.1736 11.4683 12.0859 11.1709 12.0912C10.8933 12.0951 10.7826 12.0873 10.5477 12.1145C10.3127 12.1436 9.92435 12.1824 9.80787 12.1669C9.69267 12.1534 9.71647 12.1534 9.72236 12.1339L9.72262 12.1344Z" fill="#D6BC6F"/>
<path fill-rule="evenodd" clip-rule="evenodd" d="M11.2856 13.6563C11.2856 13.6563 11.6836 13.8719 11.8274 14.1359C11.9322 14.332 11.7653 14.4292 11.7653 14.4292C11.7653 14.4292 11.9906 14.4292 11.9614 14.5535C11.9478 14.631 11.573 14.8407 11.3225 14.9514C11.0682 15.0621 11.0779 15.0564 10.9537 15.0757C10.8332 15.0952 10.5031 15.0373 10.4351 15.1339C10.3672 15.2306 10.3967 15.3302 10.4157 15.3457C10.4351 15.3592 10.5924 15.3787 10.5924 15.3787C10.5924 15.3787 10.5594 15.4699 10.2333 15.4797C9.90712 15.4894 9.82546 15.5126 9.806 15.5476C9.78655 15.5805 9.86808 15.5612 10.0177 15.586C10.1672 15.6093 10.3769 15.6244 10.3769 15.6244C10.3769 15.6244 10.3089 15.6827 10.1323 15.7293C9.93029 15.7816 9.61375 15.8303 9.51864 15.8885C9.56716 15.9215 9.63909 15.97 9.67224 15.9739C9.59071 15.9933 9.47602 16.0361 9.45669 16.0516C9.48575 16.071 9.52466 16.0943 9.52466 16.0943C9.52466 16.0943 9.36146 16.2904 9.26636 16.3391C9.17125 16.3877 8.62367 16.6419 8.43525 16.5934C7.96536 16.4691 7.90712 15.9546 7.79256 15.9158C7.61976 15.8575 7.53823 15.9739 7.38476 15.8923C7.45272 15.8438 7.48972 15.8148 7.56152 15.7817C7.48383 15.7433 7.08191 15.4885 7.08191 15.4885C7.03988 15.3969 6.99323 15.3075 6.94213 15.2206C6.86444 15.0866 6.75013 14.9079 6.66437 14.7506C6.478 14.405 6.46828 14.2457 6.29932 14.0497C6.3285 14.0113 6.42936 14.0166 6.42936 14.0166L7.84504 14.4827L10.3553 14.5554L11.0081 13.6234L11.2857 13.6564L11.2856 13.6563Z" fill="#DFC677"/>
<path fill-rule="evenodd" clip-rule="evenodd" d="M7.56738 15.0776C7.58253 15.0945 7.60019 15.1089 7.61974 15.1204C7.66838 15.1534 7.74018 15.1923 7.78869 15.2504C7.80815 15.2213 7.85666 15.1689 7.94229 15.2504C8.02793 15.3319 8.1343 15.2738 8.20047 15.2932C8.26844 15.3166 8.27228 15.3262 8.27228 15.3262C8.27228 15.3262 8.31068 15.2932 8.39657 15.2582C8.44905 15.2388 8.51113 15.2252 8.57909 15.2059C8.64117 15.1923 8.70914 15.1728 8.75586 15.1728C8.79862 15.2019 8.95196 15.3648 9.56751 15.1243C10.1481 14.899 10.282 14.8738 10.3792 14.9086C10.3889 14.8853 10.3986 14.8407 10.5481 14.8466C10.5481 14.7845 10.4238 14.5728 10.4238 14.5728L9.73839 14.3379H9.36348L8.23925 14.5437L7.61628 14.8992L7.56777 15.0784L7.56738 15.0776Z" fill="#C4A859"/>
<path fill-rule="evenodd" clip-rule="evenodd" d="M7.19238 14.6836C7.19238 14.6836 7.20595 14.7884 7.36134 14.8991C7.51494 15.0097 7.5632 15.0758 7.5632 15.0758C7.5632 15.0758 7.59238 15.0374 7.61568 14.9982C7.63897 14.9554 7.65843 14.9069 7.69721 14.8934C7.77491 14.8603 7.95155 14.9224 7.99046 14.9127C8.02349 14.9031 8.01376 14.8351 8.0487 14.8351C8.13024 14.8312 8.18259 14.8875 8.21177 14.8875C8.24096 14.8875 8.31264 14.8836 8.32237 14.8681C8.33209 14.8527 8.33593 14.6914 8.44665 14.6137C8.5671 14.5283 8.71469 14.5652 8.75385 14.5846C8.75385 14.6137 8.75769 14.6856 8.83539 14.6895C8.91309 14.6933 8.92077 14.6797 8.98899 14.703C9.05721 14.7263 9.13849 14.6992 9.17536 14.8136C9.20838 14.804 9.28608 14.7943 9.26662 14.6836C9.30502 14.6545 9.33856 14.6351 9.42022 14.5205C9.43968 14.4914 9.47257 14.4584 9.49792 14.4157C9.56589 14.4157 9.64742 14.4021 9.75609 14.4972C9.72307 14.5205 9.70361 14.5356 9.69401 14.5593C9.72244 14.5874 9.74839 14.618 9.77158 14.6505C9.80077 14.6889 9.82022 14.736 9.85709 14.7458C9.93862 14.7691 10.0726 14.736 10.2221 14.7458C10.3659 14.7555 10.4862 14.8079 10.5387 14.8409C10.5581 14.8313 10.5581 14.8273 10.6067 14.837C10.6552 14.8468 10.692 14.8506 10.6397 14.7885C10.6687 14.8021 10.7018 14.8313 10.7309 14.8021C10.7601 14.7729 10.7833 14.7303 10.8648 14.7206C10.9464 14.7108 10.9756 14.7244 11.0086 14.639C11.0513 14.5342 10.9037 14.5342 10.9037 14.5342C10.9037 14.5342 10.9717 14.472 11.0475 14.3904C11.1388 14.3051 11.2436 14.1944 11.2688 14.0584C11.3116 13.8079 11.0669 13.775 11.0669 13.775L9.88051 14.1401L8.43001 14.0681L7.19315 14.6837L7.19238 14.6836Z" fill="#927D49"/>
<path fill-rule="evenodd" clip-rule="evenodd" d="M6.12673 11.2563C6.12673 11.2563 6.08833 11.3048 6.06465 11.4194C6.04097 11.5339 6.05109 11.5203 6.03163 11.6019C6.01217 11.6834 5.7732 12.4951 5.8628 12.7689C5.9524 13.0426 6.10754 13.1436 6.20456 13.365C6.22402 13.4135 6.24296 13.4426 6.25307 13.4854C6.28609 13.629 6.25704 13.7397 6.29582 13.8835C6.30939 13.932 6.34446 13.9883 6.39681 14.0466C6.51201 14.1669 6.69979 14.2814 6.78081 14.363C6.89525 14.4834 7.05845 14.7282 7.26619 14.7513C7.37691 14.7649 7.53422 14.7183 7.66427 14.6407C7.77947 14.5688 7.85064 14.4679 7.97147 14.4103C8.05685 14.3676 8.14811 14.3521 8.22965 14.3326C8.39861 14.2996 8.55208 14.2942 8.64334 14.3132C8.78312 14.3424 9.11323 14.4434 9.29614 14.4434C9.43907 14.441 9.5812 14.4215 9.71944 14.3851C9.99707 14.3036 10.3329 14.1637 10.5544 14.1016C10.6844 14.0632 10.7893 14.0531 10.8961 14.0298C11.0787 13.987 11.232 13.9288 11.3194 13.8181C11.2612 13.7501 11.1894 13.6453 10.8009 13.6491C10.3602 13.6588 9.85141 13.9034 9.60091 13.9424C9.35041 13.9813 9.24174 14.0142 8.96206 13.9132C8.68789 13.8112 8.6788 13.7437 8.6788 13.7437C8.6788 13.7437 8.39093 13.5424 8.27048 13.0291C8.15003 12.5158 8.27048 12.1418 8.58318 11.7863C8.66472 11.6951 8.64526 11.6135 8.64526 11.6135C8.64526 11.6135 8.85109 11.3359 8.79477 11.0759C8.73269 10.8176 8.33461 10.8701 8.33461 10.8701L6.12686 11.2563H6.12673Z" fill="#6E6342"/>
<path fill-rule="evenodd" clip-rule="evenodd" d="M6.45862 12.1205C6.4415 12.1527 6.43345 12.1889 6.43532 12.2253C6.43916 12.2777 6.45478 12.3456 6.61197 12.4991C6.74598 12.633 6.7168 12.7825 6.7168 12.7825C6.7168 12.7825 6.78425 12.7961 6.96729 12.7104C7.11104 12.6425 7.15929 12.7629 7.15929 12.7629C7.20114 12.741 7.24649 12.7265 7.29331 12.7202C7.33573 12.7163 7.37679 12.7032 7.41363 12.6818C7.41363 12.6818 7.58259 12.8546 7.73017 12.9361C7.86419 13.008 7.94188 13.0565 8.00793 13.008C8.07001 12.9653 8.07001 12.8779 8.06605 12.8391C8.05064 12.8033 8.03114 12.7694 8.00793 12.7381C7.96518 12.676 7.89721 12.6041 7.89273 12.5461C7.883 12.4122 7.99372 12.2528 7.9703 12.2141C7.94688 12.1753 7.85971 12.1655 7.64416 12.2432C7.42092 12.317 6.45772 12.1209 6.45772 12.1209L6.45862 12.1205Z" fill="#39331F"/>
<path fill-rule="evenodd" clip-rule="evenodd" d="M6.96726 12.9885C6.96726 12.9885 6.85667 12.8836 6.89545 12.3748C6.94241 12.3741 6.98929 12.3787 7.03523 12.3884C7.03523 12.3884 7.09552 12.7826 6.96726 12.9885Z" fill="#292311"/>
<path fill-rule="evenodd" clip-rule="evenodd" d="M6.17925 10.868C6.19468 10.8566 6.20899 10.8437 6.222 10.8296C6.1836 10.9014 6.00632 11.1888 6.15006 11.6413C6.29381 12.0917 6.65489 12.4276 7.09957 12.4432C7.54424 12.4588 7.77797 12.2412 8.04523 11.9151C8.15006 11.785 8.27051 11.6218 8.37726 11.5112C8.53649 11.3383 8.66078 11.2898 8.66078 11.1229C8.66078 10.7811 8.31121 10.6276 7.79665 10.4743C7.28209 10.321 6.81797 10.3399 6.5772 10.4449C6.34232 10.5593 6.24133 10.6797 6.17912 10.8682L6.17925 10.868Z" fill="#252211"/>
<path fill-rule="evenodd" clip-rule="evenodd" d="M7.83144 13.1418L7.86984 13.1224C7.86984 13.1224 7.87944 12.9688 7.94165 12.9729C8.00373 12.9826 8.03291 13.0643 8.02702 13.0933C8.02318 13.1224 8.00769 13.171 7.94549 13.1651C7.86395 13.167 7.83105 13.1418 7.83105 13.1418H7.83144Z" fill="#3F3824"/>
<path fill-rule="evenodd" clip-rule="evenodd" d="M7.65869 12.4894C7.65869 12.4894 7.69709 12.4758 7.74407 12.5224C7.78247 12.5224 7.94989 12.503 8.00237 12.536C8.05485 12.569 8.07034 12.5981 8.07034 12.5981C8.07034 12.5981 7.87424 12.6408 7.76736 12.5981C7.65869 12.5612 7.65869 12.4894 7.65869 12.4894V12.4894Z" fill="#2D2815"/>
<path fill-rule="evenodd" clip-rule="evenodd" d="M8.52275 12.5184C8.52275 12.5087 8.41792 12.4369 8.3072 12.4134C8.28774 12.4096 8.28377 12.4232 8.2688 12.4232C8.25907 12.4193 8.25523 12.3901 8.25523 12.3901L8.19225 12.4233C8.19225 12.4233 8.18253 12.4369 8.21555 12.4617C8.24461 12.485 8.29325 12.5044 8.30682 12.5432C8.32038 12.582 8.32038 12.5956 8.32627 12.6015C8.33011 12.6053 8.39808 12.6015 8.4311 12.582C8.46413 12.5626 8.52633 12.5308 8.52237 12.518L8.52275 12.5184Z" fill="#82764F"/>
<path fill-rule="evenodd" clip-rule="evenodd" d="M7.54199 12.9126C7.54199 12.9126 7.56132 12.7787 7.6915 12.7729C7.82538 12.7631 7.85073 12.8932 7.85073 12.8932L7.77303 12.9709C7.77303 12.969 7.71479 12.8874 7.54263 12.9126H7.54199Z" fill="#2D2816"/>
<path fill-rule="evenodd" clip-rule="evenodd" d="M8.38673 12.3359C8.38673 12.3359 8.31479 12.4136 8.15569 12.4369C8.14212 12.4174 8.11294 12.3786 8.15569 12.3166C8.19844 12.2545 8.24695 12.235 8.29547 12.2544C8.31687 12.2578 8.33684 12.2673 8.35301 12.2818C8.36918 12.2962 8.38088 12.315 8.38673 12.3359V12.3359Z" fill="#574F35"/>
<path fill-rule="evenodd" clip-rule="evenodd" d="M8.67987 12.4311C8.68384 12.4117 8.67027 12.4078 8.67987 12.3981C8.68947 12.3884 8.74208 12.369 8.7518 12.3786C8.75564 12.3826 8.7518 12.3981 8.7518 12.417C8.7518 12.436 8.7518 12.4554 8.74208 12.4694C8.72851 12.4888 8.68972 12.4986 8.67027 12.4928C8.65081 12.487 8.64697 12.4598 8.64697 12.4544C8.65657 12.4506 8.67987 12.4408 8.67987 12.4311ZM9.01139 12.2214C9.01139 12.2117 9.04441 12.1923 9.06387 12.1923C9.09292 12.1923 9.09292 12.2156 9.09689 12.2214C9.10649 12.2253 9.10649 12.2175 9.11622 12.235C9.12595 12.2525 9.13964 12.2835 9.12979 12.303C9.11993 12.3224 9.08128 12.3359 9.07168 12.332C9.05811 12.3223 9.01536 12.235 9.01139 12.2214V12.2214Z" fill="#82764F"/>
<path fill-rule="evenodd" clip-rule="evenodd" d="M8.34424 12.4758C8.34424 12.4758 8.38699 12.4854 8.44523 12.5341C8.42577 12.5476 8.39659 12.5631 8.39659 12.5631C8.39659 12.5631 8.39275 12.5185 8.34424 12.4757V12.4758Z" fill="#6E6342"/>
<path fill-rule="evenodd" clip-rule="evenodd" d="M8.24909 12.0485C8.23937 12.0389 8.27815 12.0156 8.30145 12.0195C8.32474 12.0233 8.33447 12.0389 8.35969 12.0428C8.3849 12.0466 8.38887 12.033 8.39809 12.0233C8.4073 12.0136 8.44084 12.0195 8.4466 12.0233C8.45018 12.0276 8.45344 12.0321 8.45633 12.0369C8.45673 12.0295 8.45866 12.0223 8.46198 12.0156C8.46531 12.009 8.46996 12.0032 8.47565 11.9985C8.4831 11.993 8.49169 11.9893 8.50078 11.9876C8.50987 11.9859 8.51922 11.9863 8.52813 11.9887C8.53197 12.0023 8.55143 12.0508 8.54759 12.0605C8.54375 12.0703 8.48551 12.084 8.47565 12.0741C8.48538 12.0975 8.52813 12.146 8.53389 12.1556C8.53965 12.1652 8.49114 12.1887 8.47181 12.1848C8.44468 12.1829 8.27764 12.0858 8.24858 12.0489L8.24909 12.0485ZM8.50343 11.7262C8.49983 11.7164 8.49296 11.7082 8.48397 11.7029C8.47041 11.6991 8.42573 11.7029 8.42573 11.7262C8.42573 11.7495 8.46413 11.8798 8.50727 11.9476C8.55591 12.0156 8.58881 12.0718 8.62183 12.0874C8.6322 12.0921 8.64397 12.0928 8.65478 12.0892C8.66558 12.0855 8.67462 12.078 8.68007 12.068C8.68391 12.0582 8.69364 11.9864 8.6898 11.8175C8.68596 11.6485 8.68007 11.4854 8.67034 11.4757C8.66061 11.466 8.62183 11.4661 8.60826 11.4854C8.59469 11.5048 8.50727 11.6972 8.5033 11.7262H8.50343Z" fill="#585136"/>
<path fill-rule="evenodd" clip-rule="evenodd" d="M8.33049 12.7204C8.33049 12.7204 8.26252 12.6777 8.19647 12.7068C8.13439 12.736 8.13823 12.8506 8.13823 12.8506C8.1522 12.8561 8.16729 12.858 8.18219 12.8563C8.19709 12.8546 8.21135 12.8493 8.22373 12.8409C8.26649 12.8118 8.32076 12.7633 8.33049 12.7205V12.7204Z" fill="#574F35"/>
<path fill-rule="evenodd" clip-rule="evenodd" d="M8.45881 12.8738C8.45497 12.8354 8.42041 12.8354 8.42041 12.8156C8.42279 12.8061 8.42828 12.7977 8.43601 12.7917C8.44374 12.7857 8.45326 12.7825 8.46303 12.7826C8.48249 12.7826 8.50143 12.8059 8.52524 12.821C8.54854 12.8345 8.58348 12.8594 8.58732 12.8889C8.59116 12.9185 8.54892 12.9995 8.50195 12.9995C8.45497 12.9995 8.46892 12.9121 8.45919 12.8733L8.45881 12.8738ZM8.83359 12.8214C8.83359 12.8214 8.7559 12.8446 8.76166 12.8214C8.76742 12.7981 8.78508 12.7923 8.8103 12.7923C8.82311 12.7789 8.84034 12.7706 8.85881 12.7689C8.86937 12.7684 8.87975 12.7718 8.88787 12.7786C8.88787 12.7786 8.94035 12.7553 8.95583 12.7689C8.97132 12.7824 8.9598 12.7824 8.9694 12.7981C8.98163 12.8154 8.98965 12.8353 8.99283 12.8563C8.99283 12.8718 8.93459 12.9048 8.88787 12.899C8.83359 12.8874 8.84319 12.8311 8.83359 12.8214V12.8214ZM9.28595 12.7339C9.28595 12.7339 9.30924 12.7475 9.28991 12.7631C9.27635 12.7767 9.20838 12.8015 9.15001 12.8059C9.09177 12.8059 9.03942 12.8155 9.03942 12.7961C9.03942 12.7768 9.08793 12.7379 9.11699 12.7282C9.12281 12.7209 9.13022 12.715 9.13864 12.711C9.14706 12.7069 9.15629 12.7048 9.16563 12.7049C9.18892 12.7049 9.28006 12.6951 9.3054 12.6913C9.3287 12.6873 9.34815 12.7009 9.33446 12.7204C9.3287 12.7339 9.28595 12.7339 9.28595 12.7339V12.7339ZM9.41996 12.1344C9.41996 12.1344 9.39078 12.1965 9.35788 12.1965C9.32486 12.1926 9.32486 12.1829 9.32486 12.1732C9.32486 12.1596 9.35788 12.1246 9.35391 12.1149C9.34431 12.1149 9.32089 12.1149 9.32486 12.0916C9.32486 12.0722 9.35788 12.0489 9.38694 12.0532C9.40889 12.0352 9.43623 12.025 9.46463 12.0242C9.49766 12.0242 9.52671 12.0338 9.52671 12.0532C9.52671 12.0727 9.48831 12.1153 9.47423 12.1252C9.45875 12.1407 9.43929 12.1508 9.41996 12.1348V12.1344ZM8.97721 13.2819C8.97721 13.2819 8.93881 13.2859 8.93881 13.3052C8.93881 13.3149 8.94841 13.3149 8.96211 13.3092C8.97 13.3087 8.97781 13.3074 8.9854 13.3052C8.98924 13.3092 8.98924 13.3285 9.01843 13.3285C9.04239 13.3253 9.06548 13.3173 9.08639 13.3052C9.10969 13.2956 9.12915 13.2857 9.12915 13.2668C9.11942 13.2338 9.09996 13.2182 9.07091 13.2182C9.05602 13.2172 9.04117 13.2206 9.02815 13.2279C9.02815 13.2279 9.01843 13.2084 8.9854 13.2279C8.95238 13.2473 8.95622 13.2473 8.96595 13.2571C8.98335 13.2726 8.97759 13.2827 8.97759 13.2827L8.97721 13.2819ZM8.75782 13.4839C8.75782 13.4742 8.80633 13.4547 8.8199 13.4606C8.83347 13.4644 8.87225 13.5382 8.87225 13.546C8.87225 13.5557 8.82374 13.579 8.80428 13.579C8.78483 13.579 8.75193 13.546 8.75193 13.5406C8.75193 13.5367 8.77523 13.531 8.77523 13.527C8.78099 13.5174 8.75782 13.494 8.75782 13.4843V13.4839ZM8.60422 13.2004C8.61395 13.1965 8.61395 13.1868 8.62751 13.1771C8.63176 13.1742 8.6366 13.1724 8.64166 13.1718C8.64672 13.1711 8.65186 13.1716 8.6567 13.1732C8.66012 13.1671 8.66486 13.1618 8.67057 13.1578C8.67628 13.1537 8.68283 13.151 8.68972 13.1498C8.71302 13.146 8.73247 13.1498 8.72812 13.1595C8.72812 13.1887 8.74758 13.208 8.74758 13.2313C8.74758 13.2546 8.73401 13.2838 8.6855 13.3033C8.63699 13.3168 8.57094 13.3168 8.56121 13.313C8.55148 13.3092 8.54175 13.2702 8.55148 13.2508C8.56121 13.2313 8.58835 13.2101 8.60396 13.2004H8.60422Z" fill="#82764F"/>
<path fill-rule="evenodd" clip-rule="evenodd" d="M8.66584 13.2136C8.66584 13.2136 8.63281 13.2331 8.63281 13.2428C8.62988 13.2522 8.62859 13.262 8.62897 13.2719C8.62897 13.2776 8.67172 13.268 8.67748 13.2621C8.6794 13.2583 8.66584 13.2237 8.66584 13.2136Z" fill="#6E6342"/>
<path fill-rule="evenodd" clip-rule="evenodd" d="M8.37721 13.1223C8.39654 13.1263 8.42956 13.1223 8.45478 13.1321C8.47424 13.1418 8.4878 13.1612 8.46835 13.1845C8.44889 13.2078 8.42995 13.2428 8.38681 13.2369C8.3383 13.2331 8.29171 13.2078 8.29171 13.1884C8.29089 13.1761 8.29253 13.1637 8.29653 13.1521C8.30053 13.1404 8.30681 13.1296 8.315 13.1204C8.33446 13.1049 8.34406 13.1147 8.37708 13.1223H8.37721Z" fill="#585136"/>
<path fill-rule="evenodd" clip-rule="evenodd" d="M8.35387 13.1417C8.35387 13.1417 8.29179 13.1902 8.27617 13.2137C8.25672 13.237 8.16161 13.3573 8.13256 13.3825C8.14221 13.3655 8.15321 13.3492 8.16545 13.334C8.12705 13.3585 8.09826 13.3955 8.08392 13.4388C8.06062 13.5107 8.21409 13.5495 8.31496 13.5787C8.41582 13.6079 8.45486 13.6171 8.45486 13.6171C8.41772 13.5613 8.38584 13.5022 8.35963 13.4405C8.32123 13.3492 8.30139 13.3395 8.3266 13.2967C8.34606 13.254 8.37524 13.2249 8.37524 13.1919C8.3636 13.1612 8.35387 13.1417 8.35387 13.1417Z" fill="#574F35"/>
<path fill-rule="evenodd" clip-rule="evenodd" d="M6.14039 13.2953C6.15452 13.2979 6.16901 13.2979 6.18314 13.2953C6.2122 13.2913 6.51518 13.1801 6.83172 13.2C7.06869 13.2143 7.30356 13.2529 7.53265 13.3152C7.93073 13.4201 8.42583 13.6278 8.74622 13.7463C8.83159 13.7792 8.91518 13.8376 8.97662 13.8608C9.22135 13.956 9.23095 13.956 9.3747 13.9812C9.54366 14.0045 9.71646 13.9482 9.89706 13.9094C10.1184 13.8608 10.497 13.8375 10.829 13.789C10.9364 13.7741 11.0423 13.7501 11.1456 13.7171C11.1456 13.7171 10.8815 13.9812 10.2484 14.0763C9.99253 14.1152 9.73248 14.1184 9.47569 14.086C9.2737 14.0666 9.13982 14.0374 9.03882 14.0083C8.92426 13.9753 8.68926 13.8879 8.39998 13.8163C8.19799 13.7639 7.97271 13.7251 7.71454 13.6766C7.07761 13.56 6.38641 13.4261 6.14014 13.296L6.14039 13.2953Z" fill="#252211"/>
<path fill-rule="evenodd" clip-rule="evenodd" d="M5.42532 12.0952C5.27172 12.2253 5.10878 12.3496 4.94967 12.4699L4.47006 12.8384C4.30698 12.9587 4.14775 13.083 3.98455 13.2034C3.82135 13.3239 3.65841 13.4383 3.48535 13.549C3.63895 13.419 3.8019 13.2985 3.96497 13.1801C4.12804 13.0617 4.29713 12.9456 4.45444 12.8256L4.93406 12.4566C5.09905 12.3362 5.25828 12.212 5.42532 12.0955V12.0952ZM4.57681 13.4544C4.57681 13.4544 4.74961 13.3107 4.96516 13.1088C5.23306 12.8585 5.56126 12.538 5.66609 12.4799L4.57668 13.4546L4.57681 13.4544Z" fill="#CFB66C"/>
<path fill-rule="evenodd" clip-rule="evenodd" d="M4.57715 13.4544C4.66265 13.369 4.75392 13.2856 4.84518 13.2039L4.98496 13.0836C5.02771 13.0452 5.07635 13.002 5.11897 12.9593C5.20435 12.8739 5.28793 12.7825 5.37331 12.6952C5.41562 12.6513 5.46037 12.6098 5.50732 12.5709C5.5308 12.5502 5.55687 12.5325 5.58489 12.5185C5.60832 12.5049 5.63353 12.4801 5.66643 12.4757C5.6471 12.5049 5.6238 12.5185 5.60435 12.5437C5.58105 12.5631 5.5616 12.5864 5.54227 12.6058C5.49952 12.6485 5.451 12.6873 5.40825 12.7262C5.31699 12.8039 5.22188 12.8798 5.13062 12.9611C5.03936 13.0424 4.95398 13.13 4.86259 13.2116C4.76364 13.2952 4.67238 13.3767 4.57715 13.4548V13.4544ZM5.73836 12.6777C5.73836 12.6777 5.1054 13.2972 4.97523 13.3981L5.73836 12.6777Z" fill="#CFB66C"/>
<path fill-rule="evenodd" clip-rule="evenodd" d="M5.73823 12.6776C5.68129 12.7435 5.62024 12.8058 5.55545 12.864L5.36345 13.0465C5.30137 13.1086 5.243 13.1708 5.17708 13.2329C5.10911 13.2911 5.04703 13.3481 4.9751 13.4018L5.16147 13.2193C5.22367 13.1572 5.29164 13.1049 5.35769 13.0427L5.54406 12.8601C5.60806 12.7961 5.67027 12.7339 5.73823 12.6776V12.6776ZM5.76729 13.0135C5.70895 13.1763 5.6402 13.3352 5.56147 13.4893C5.39839 13.8155 5.15379 14.2232 5.04691 14.4311L5.76729 13.0135Z" fill="#CFB66C"/>
<path fill-rule="evenodd" clip-rule="evenodd" d="M5.76729 13.0137C5.76729 13.0855 5.74784 13.1477 5.72454 13.2098C5.70183 13.2719 5.67594 13.3328 5.64697 13.3923C5.61779 13.4505 5.58476 13.5127 5.55174 13.5691C5.51872 13.6254 5.47993 13.6835 5.45075 13.7419L5.25465 14.0875C5.18668 14.2027 5.12064 14.3185 5.04883 14.4292C5.09734 14.3049 5.16339 14.1885 5.2256 14.0739C5.29356 13.9587 5.35564 13.8435 5.4176 13.7243C5.44784 13.6649 5.47506 13.6041 5.49913 13.5419C5.52819 13.4797 5.55724 13.4215 5.58067 13.3652C5.60972 13.3031 5.63302 13.2447 5.6622 13.1885C5.6951 13.1282 5.72236 13.07 5.76704 13.0137H5.76729Z" fill="#CFB66C"/>
<path fill-rule="evenodd" clip-rule="evenodd" d="M6.45882 14.6058C6.45882 14.6058 6.26682 14.8602 6.28602 15.1825C6.33837 15.0136 6.40442 14.7553 6.45882 14.6058ZM6.64135 14.8608C6.64135 14.8608 6.57338 15.552 6.51706 15.8919C6.59667 15.499 6.61216 15.532 6.64135 14.8608ZM7.91315 15.9327C7.91315 15.9327 7.62579 16.7775 7.61991 17.0122C7.68211 16.7708 7.80243 16.2776 7.91315 15.932V15.9327Z" fill="#DEC270"/>
<path fill-rule="evenodd" clip-rule="evenodd" d="M8.58496 14.5536C8.58496 14.5536 9.05101 15.3225 9.40058 15.9787C9.30599 15.6485 9.08838 15.0428 8.58496 14.5536Z" fill="#CBAF59"/>
<path fill-rule="evenodd" clip-rule="evenodd" d="M9.8374 15.6855C10.0933 16.1379 10.324 16.6039 10.5286 17.0816C10.4898 16.7515 10.3849 16.1865 9.8374 15.6855Z" fill="#E3C677"/>
<path fill-rule="evenodd" clip-rule="evenodd" d="M13.5187 16.8192C13.5963 16.7707 13.7498 16.5065 13.8838 16.4405C14.0177 16.3726 14.1187 16.359 14.2391 16.225C14.3594 16.0851 14.3927 15.9997 14.6565 15.8891C15.0255 15.7298 14.7717 15.5239 14.7717 15.5239C14.8124 15.484 14.8558 15.4471 14.9018 15.4133C14.997 15.3415 15.1076 15.2541 15.098 15.1006C15.0844 14.8425 15.0359 14.4677 14.8242 14.2502C15.03 14.2075 15.4241 14.1784 15.669 14.1163C15.9524 14.0444 16.0826 13.9434 16.0826 13.9434C16.0826 13.9434 15.9195 13.6658 16.1836 13.3862C16.4476 13.1067 16.6632 12.9396 16.8224 12.6269C16.6399 12.6036 16.3616 12.5066 15.6515 12.7764C15.6898 12.7945 15.7268 12.8152 15.7622 12.8385C15.7622 12.8385 15.3253 12.9589 15.1661 13.093C14.8883 13.3278 14.8534 13.5201 14.5524 13.6638C14.2515 13.8076 13.9485 13.7687 13.6982 13.8852C13.4478 14.0016 13.4108 14.1007 13.3194 14.1435C13.3389 14.1668 13.3156 14.2055 13.3524 14.2386C13.3292 14.2716 13.1932 14.4929 13.0554 14.4929C13.0689 14.5454 13.1854 14.5842 13.1854 14.5842C13.1854 14.5842 13.1 14.6464 12.8826 14.6619C12.9932 14.7771 13.0981 14.9026 13.3874 15.0852C13.3641 15.1337 13.2669 15.2056 13.3059 15.2969C13.3486 15.3881 13.4595 15.5124 13.902 15.6134C13.6767 15.623 13.4127 15.6755 13.0572 15.627C12.7018 15.5842 12.6436 15.559 12.4242 15.6134C12.4475 15.6367 12.5096 15.6367 12.564 15.6988C12.5057 15.7026 12.1407 15.656 12.0164 15.8192C11.8863 15.9881 11.83 16.2658 11.8397 16.4522C11.7718 16.4852 11.7057 16.5435 11.7388 16.6639C11.7718 16.7844 11.9446 16.8231 12.0553 16.8988C12.1659 16.9803 12.1756 17.0094 12.2806 16.99C12.3912 16.9668 12.5542 16.8562 12.6495 16.8562C12.7447 16.8562 12.8125 16.928 12.8125 16.928C12.8125 16.928 13.0708 16.8037 13.0961 16.827C13.1194 16.8503 13.0999 16.9998 13.1251 17.0231C13.1507 17.0406 13.4417 16.8678 13.5194 16.8192H13.5187Z" fill="#ECD592"/>
<path fill-rule="evenodd" clip-rule="evenodd" d="M19.1636 9.04854C17.95 5.91459 14.95 5.33398 14.95 5.33398H6.39075L6.42378 8.52618H8.12835V15.6544H6.39062V18.8408H14.7131C16.7188 18.8408 18.3266 16.8252 18.3266 16.8252C20.9013 13.1709 19.1635 9.04854 19.1635 9.04854H19.1636ZM14.7577 14.6776C14.7577 14.6776 14.1049 15.6194 13.3947 15.6194H11.9739L11.9402 8.53398H13.7636C13.7636 8.53398 14.6084 8.71062 15.1986 10.3824C15.1986 10.3824 15.981 12.776 14.7577 14.6776V14.6776Z" fill="white" fill-opacity="0.8"/>
</g>
<defs>
<clipPath id="clip0_58_98">
<rect width="24" height="24" fill="white" transform="translate(0.563477)"/>
</clipPath>
</defs>
</svg>
