<svg width="32" height="33" viewBox="0 0 32 33" fill="none" xmlns="http://www.w3.org/2000/svg">
<g clip-path="url(#clip0_6_20)">
<path d="M16 3.16663C23.364 3.16663 29.3333 9.13596 29.3333 16.5C29.3333 23.864 23.364 29.8333 16 29.8333C8.63596 29.8333 2.66663 23.864 2.66663 16.5C2.66663 9.13596 8.63596 3.16663 16 3.16663ZM15.0573 11.7853L11.2853 15.5573C11.0353 15.8073 10.8949 16.1464 10.8949 16.5C10.8949 16.8535 11.0353 17.1926 11.2853 17.4426L15.0573 21.2146C15.3073 21.4646 15.6464 21.605 16 21.605C16.3535 21.605 16.6926 21.4646 16.9426 21.2146L20.7146 17.4426C20.9646 17.1926 21.105 16.8535 21.105 16.5C21.105 16.1464 20.9646 15.8073 20.7146 15.5573L16.9426 11.7853C16.6926 11.5353 16.3535 11.3949 16 11.3949C15.6464 11.3949 15.3073 11.5353 15.0573 11.7853Z" fill="#FCE51A"/>
</g>
<defs>
<clipPath id="clip0_6_20">
<rect width="32" height="32" fill="white" transform="translate(0 0.5)"/>
</clipPath>
</defs>
</svg>
