<svg width="14" height="15" viewBox="0 0 14 15" fill="none" xmlns="http://www.w3.org/2000/svg">
<path d="M8.75008 7.49996C8.75008 6.50829 7.99175 5.74996 7.00008 5.74996C6.00842 5.74996 5.25008 6.50829 5.25008 7.49996C5.25008 8.49163 6.00842 9.24996 7.00008 9.24996C7.99175 9.24996 8.75008 8.49163 8.75008 7.49996ZM9.91675 2.42496C7.64175 1.14163 4.84175 1.54996 2.97508 3.24163V2.24996C2.97508 1.89996 2.74175 1.66663 2.39175 1.66663C2.04175 1.66663 1.80841 1.89996 1.80841 2.24996V4.87496C1.80841 5.22496 2.04175 5.45829 2.39175 5.45829H5.01675C5.36675 5.45829 5.60008 5.22496 5.60008 4.87496C5.60008 4.52496 5.36675 4.29163 5.01675 4.29163H3.61675C4.49175 3.35829 5.71675 2.83329 7.00008 2.83329C9.56675 2.83329 11.6667 4.93329 11.6667 7.49996C11.6667 7.84996 11.9001 8.08329 12.2501 8.08329C12.6001 8.08329 12.8334 7.84996 12.8334 7.49996C12.8334 5.39996 11.7251 3.47496 9.91675 2.42496ZM11.6084 9.54163H8.98342C8.63342 9.54163 8.40008 9.77496 8.40008 10.125C8.40008 10.475 8.63342 10.7083 8.98342 10.7083H10.3834C9.50842 11.6416 8.28342 12.1666 7.00008 12.1666C4.43341 12.1666 2.33341 10.0666 2.33341 7.49996C2.33341 7.14996 2.10008 6.91663 1.75008 6.91663C1.40008 6.91663 1.16675 7.14996 1.16675 7.49996C1.16675 10.7083 3.79175 13.3333 7.00008 13.3333C8.51675 13.3333 9.91675 12.75 11.0251 11.7V12.75C11.0251 13.1 11.2584 13.3333 11.6084 13.3333C11.9584 13.3333 12.1917 13.1 12.1917 12.75V10.125C12.1917 9.77496 11.9001 9.54163 11.6084 9.54163Z" fill="#8A7DA6"/>
</svg>
